<svg xmlns="http://www.w3.org/2000/svg" xmlns:xlink="http://www.w3.org/1999/xlink" version="1.1" id="Layer_1" x="0px" y="0px" style="enable-background:new 0 0 1000 1000;" xml:space="preserve" viewBox="295.3 247.7 409.6 504.5">
<style type="text/css">
	.st0{fill:none;stroke:#C12030;stroke-width:3.9838;stroke-linejoin:round;stroke-miterlimit:10;}
	.st1{fill:none;stroke:#C12030;stroke-width:1.5316;stroke-linejoin:round;stroke-miterlimit:10;}
	.st2{fill-rule:evenodd;clip-rule:evenodd;fill:#C12030;}
	.st3{fill:none;stroke:#C12030;stroke-width:0.5859;stroke-linejoin:round;stroke-miterlimit:10;}
	.st4{fill:none;stroke:#C12030;stroke-width:2.4522;stroke-linejoin:round;stroke-miterlimit:10;}
	.st5{fill:none;stroke:#C12030;stroke-width:3.5779;stroke-linejoin:round;stroke-miterlimit:10;}
	.st6{fill:none;stroke:#C12030;stroke-width:3.6784;stroke-linejoin:round;stroke-miterlimit:10;}
	.st7{fill:none;stroke:#C12030;stroke-width:2.9628;stroke-linejoin:round;stroke-miterlimit:10;}
	.st8{fill:none;stroke:#C12030;stroke-width:2.0421;stroke-linejoin:round;stroke-miterlimit:10;}
	.st9{fill:none;stroke:#C12030;stroke-width:7.8672;stroke-linejoin:round;stroke-miterlimit:10;}
	.st10{fill:#C12030;}
	.st11{fill:#020202;}
	.st12{fill-rule:evenodd;clip-rule:evenodd;fill:#020202;}
	.st13{fill:#D0D2D3;}
	.st14{fill-rule:evenodd;clip-rule:evenodd;fill:#D0D2D3;}
</style>
<g>
	<g>
		<rect x="493.6" y="635.2" class="st10" width="6.6" height="91.7"/>
		<path class="st10" d="M496.9,622.7c-0.4,0-0.7-0.1-1-0.2l-1.5-0.5c-0.3-0.1-0.7-0.3-0.9-0.5l-1.3-1c-0.2-0.1-0.3-0.3-0.5-0.4    l-2.6-3l-1.7-1.4l-1.7-1.2l-2.5-0.9l-3.1-0.3h-7.2l-6,0.3l-25.5,2l-8,0.5l-8.8,0.2h-19.3c-0.1,0-0.1,0-0.2,0l-3.1-0.2    c-1.8,0-3.3-1.5-3.3-3.3V462.1c0-1.8,1.5-3.3,3.3-3.3h19.4l9.1-0.2l7.7-0.7l8.8-0.7l9.6-1.1l10.9-1l5.1-0.3c0.1,0,0.1,0,0.2,0h4.6    c0.1,0,0.2,0,0.3,0l6.9,0.5c0.2,0,0.3,0,0.5,0.1l2.3,0.4c0.4,0,0.8,0.1,1.2,0.2l4,1.5c0.1,0,0.3,0.1,0.4,0.2l2.8,1.5    c0.2,0.1,0.4,0.2,0.5,0.4l1,0.8l1.2-0.9c0.1-0.1,0.3-0.2,0.4-0.3l2.8-1.5c0.1-0.1,0.2-0.1,0.3-0.2l3.8-1.5    c0.4-0.1,0.8-0.2,1.2-0.2h0.4l1.6-0.4c0.2-0.1,0.4-0.1,0.6-0.1l3.1-0.2l3.9-0.3c0.1,0,0.2,0,0.3,0h4.6c0.1,0,0.1,0,0.2,0l5.3,0.3    l10.7,1l10,1.2l16.4,1.3l9,0.2h19.2c1.8,0,3.3,1.5,3.3,3.3V613c0,1.8-1.5,3.3-3.3,3.3h-0.5l-2.2,0.2c-0.1,0-0.2,0-0.2,0H570    l-8.8-0.2l-21.4-1.5l-12-1l-6.3-0.3h-7.1l-3.2,0.3l-2.5,0.9l-2.1,1.2l-1.4,1.3l-1.4,1.5c0,0-0.1,0.1-0.1,0.1l-1.5,1.5    c-0.2,0.2-0.3,0.3-0.5,0.4l-1.5,1c-0.2,0.2-0.5,0.3-0.8,0.4l-1.5,0.5C497.6,622.7,497.3,622.7,496.9,622.7z M496.4,615.5l0.6,0.4    l0,0l0.9-0.6l1.2-1.2l1.4-1.6c0.1-0.1,0.2-0.2,0.2-0.2l1.8-1.7c0.2-0.2,0.4-0.3,0.6-0.4l2.7-1.5c0.2-0.1,0.3-0.2,0.5-0.2l3.1-1.2    c0.3-0.1,0.6-0.2,0.9-0.2l3.8-0.3c0.1,0,0.2,0,0.3,0h7.3c0.1,0,0.1,0,0.2,0l6.5,0.3l25.4,2l7.8,0.5l8.6,0.2h19V465.4h-15.9    l-9.2-0.2c-0.1,0-0.1,0-0.2,0l-16.6-1.3l-10.1-1.2l-10.5-1l-5.1-0.3h-4.4l-3.8,0.3l-2.9,0.2l-1.7,0.4c-0.3,0.1-0.5,0.1-0.8,0.1    h-0.2l-3.1,1.2l-2.4,1.3l-1.5,1.2v0.3h-0.2l0,0.2c-0.1,0.7-0.4,1.3-0.9,1.8l-0.3,0.3l-2.3-2.3h-0.2l-2.3,1.1l-0.4-0.8l-0.6-0.9    l-1.2-1l-2.3-1.2l-3.3-1.2c-0.2,0-0.5,0-0.7-0.1l-2.1-0.4l-2.7-0.2l-3.9-0.3h-4.4l-4.9,0.3l-10.7,1l-9.7,1.2l-16.7,1.3    c-0.1,0-0.1,0-0.2,0l-9.3,0.2h-16.2v144.4l0.1,0h19.1l8.6-0.2l14.7-1l18.5-1.5l6.2-0.3c0.1,0,0.1,0,0.2,0h7.5c0.1,0,0.2,0,0.3,0    l3.6,0.3c0.3,0,0.5,0.1,0.8,0.2l3.3,1.2c0.3,0.1,0.5,0.2,0.8,0.4l2.2,1.5c0.1,0.1,0.2,0.1,0.2,0.2l2,1.7c0.1,0.1,0.2,0.2,0.3,0.3    L496.4,615.5z"/>
		<path class="st10" d="M417,484.9c-0.3,0-0.5-0.1-0.7-0.2c-0.3-0.2-0.6-0.6-0.6-1.1v-4.1c0-0.5,0.3-1,0.8-1.2l0.8-0.3    c0.1-0.1,0.3-0.1,0.5-0.1h5.1l3.4-0.2l6.4,0l2.1-0.3c0.1,0,0.1,0,0.2,0h1.5l2.8-0.3l3.4-0.5l4.3-0.2l4.4-0.5l4.2-0.3l3.9-0.5    l2.9-0.2l2.1,0l3.8-0.5l10.6,0l1.9,0.2l0.7,0c0.7,0,1.3,0.6,1.3,1.3v4.1c0,0.7-0.6,1.3-1.3,1.3h-0.5c-0.1,0-0.2,0-0.3,0l-1.2-0.3    h-6.5l-4.9,0.3l-6.4,0.7l-9.1,0.7l-1.9,0.3l-3.3,0.2l-3.9,0.5l-4,0.3l-4.2,0.2l-3.4,0.3l-2.6,0l-3.4,0.2l-7.9,0l-0.6,0.2    C417.4,484.9,417.2,484.9,417,484.9z M418.3,482.1h7.7l3.4-0.2l2.5,0l3.4-0.3l4.2-0.2l3.9-0.3l3.9-0.5l3.2-0.2l1.8-0.3    c0.1,0,0.1,0,0.2,0h1l8-0.7l6.4-0.7l5-0.3l6.7,0c0.1,0,0.2,0,0.3,0l0.2,0.1v-1.4l-1.5-0.1l-10.3,0l-3.8,0.5l-2.1,0l-2.7,0.2    l-3.9,0.5l-4.2,0.3l-4.4,0.5l-4.2,0.2l-3.4,0.5l-3,0.3l-1.5,0l-2.1,0.3c-0.1,0-0.1,0-0.2,0h-6.5l-3.4,0.2l-4.8,0V482.1z"/>
		<path class="st10" d="M418.3,482.9l-0.9-2.4l0.8-0.3c0.1-0.1,0.3-0.1,0.5-0.1h5.5l3.8-0.2l4.2,0l4.4-0.3l4-0.7l4-0.2l6.4-0.8    l11.8-1l4.4-0.5l6.4,0l3.2,0.2l4.2,0.3l-0.2,2.5l-4.1-0.3l-3.1-0.2l-6.2,0l-4.3,0.5l-11.8,1l-6.4,0.8l-3.9,0.2l-4,0.6l-4.6,0.3    l-4.2,0l-3.8,0.2l-5.3,0L418.3,482.9z"/>
		<path class="st10" d="M422.8,496.7H417c-0.7,0-1.3-0.6-1.3-1.3v-4c0-0.7,0.6-1.3,1.3-1.3h6l3.4-0.3l3.6,0l2.9-0.2l3.7,0l2.8-0.3    l3.4-0.5l4.3-0.2l4.4-0.5l4.2-0.3l3.9-0.5l2.9-0.2l2.1,0l3.8-0.5l10.6,0l1.9,0.2l0.7,0c0.7,0,1.3,0.6,1.3,1.3v4    c0,0.7-0.6,1.3-1.3,1.3h-0.5l-1.5-0.2l-6.5,0l-4.9,0.2l-6.4,0.5l-8.1,0.8l-1.1,0l-5,0.5l-4,0.5l-4.1,0.2l-4.1,0.3l-3.5,0.2l-2.5,0    l-3.4,0.3L422.8,496.7z M418.3,494.2h7.7l3.4-0.3l2.6,0l3.4-0.2l4.1-0.3l4-0.2l7-0.8l2-0.2l1.1,0l8-0.8l6.5-0.5l5-0.2l6.7,0    l0.6,0.1v-1.4l-1.5-0.1l-10.3,0l-3.8,0.5l-2.1,0l-2.7,0.2l-3.9,0.5l-4.2,0.3l-4.4,0.5l-4.2,0.2l-3.4,0.5l-3,0.3l-3.8,0l-2.9,0.2    l-3.6,0l-3.4,0.3l-4.8,0V494.2z"/>
		<polygon class="st10" points="420.8,494.7 417.9,494.7 417.9,492.2 424.2,492.2 427.9,491.9 432.1,491.9 436.5,491.7 440.6,491.2     444.4,490.9 450.9,490.2 462.7,489.2 467.1,488.7 473.6,488.7 476.8,488.9 481,489.2 480.8,491.7 476.6,491.4 473.5,491.2     467.3,491.2 462.9,491.7 451.1,492.7 436.7,494.2 432.2,494.4 428,494.4 424.3,494.7   "/>
		<path class="st10" d="M422.8,517.9H417c-0.7,0-1.3-0.6-1.3-1.3v-4c0-0.7,0.6-1.3,1.3-1.3h6l3.4-0.3l3.6,0l2.9-0.2l3.7,0l2.8-0.3    l3.4-0.5l4.3-0.2l4.4-0.5l4.2-0.3l3.9-0.5l2.9-0.2l2.1,0l3.8-0.5l10.6,0l1.9,0.2l0.7,0c0.7,0,1.3,0.6,1.3,1.3v4.1    c0,0.7-0.6,1.3-1.3,1.3h-0.5c-0.1,0-0.2,0-0.3,0l-1.2-0.3h-6.5l-11.3,0.8l-9.1,0.7l-1.9,0.3l-3.3,0.2l-3.9,0.5l-4,0.3l-4.2,0.2    l-3.4,0.3l-2.6,0l-3.4,0.2L422.8,517.9z M418.3,515.4h7.7l3.4-0.2l2.5,0l3.4-0.3l4.2-0.2l3.9-0.3l3.9-0.5l3.2-0.2l1.8-0.3    c0.1,0,0.1,0,0.2,0h1l19.5-1.5l6.7,0c0.1,0,0.2,0,0.3,0l0.2,0.1v-1.4l-1.5-0.1l-10.3,0l-3.8,0.5l-2.1,0l-2.7,0.2l-3.9,0.5    l-4.2,0.3l-4.4,0.5l-4.2,0.2l-3.4,0.5l-3,0.3l-3.8,0l-2.9,0.2l-3.6,0l-3.4,0.3l-4.8,0V515.4z"/>
		<polygon class="st10" points="420.8,515.9 417.9,515.9 417.9,513.4 424.2,513.4 427.9,513.2 432.1,513.2 436.5,512.9 440.6,512.4     444.5,512.2 450.9,511.4 462.7,510.4 467.1,509.9 473.6,509.9 476.8,510.1 481,510.4 480.8,513 476.6,512.6 473.5,512.5     467.3,512.5 462.9,512.9 451.1,513.9 444.7,514.8 440.8,514.9 436.7,515.4 432.2,515.8 428,515.8 424.2,515.9   "/>
		<path class="st10" d="M420,530.2h-3c-0.7,0-1.3-0.6-1.3-1.3v-4c0-0.7,0.6-1.3,1.3-1.3h6l3.4-0.3l3.6,0l2.9-0.2l2.1,0l1.4-0.3    c0.1,0,0.1,0,0.2,0l3-0.2l3.4-0.3l4.2-0.2l4.4-0.5l4.2-0.3l3.9-0.6l3-0.2l2.1,0l3.8-0.5l4.2-0.3c0.1,0,0.1,0,0.2,0l3.6,0.3l2.5,0    l1.9,0.2l0.7,0c0.7,0,1.3,0.6,1.3,1.3v4.1c0,0.4-0.2,0.8-0.5,1c-0.3,0.2-0.8,0.3-1.1,0.2l-0.3-0.1h-7.8l-4.9,0.2l-6.4,0.5    l-8.1,0.8l-1.1,0l-5,0.5l-4,0.5l-4.1,0.2l-4.1,0.3l-3.5,0.2l-6,0l-3,0.3L420,530.2z M418.3,527.7h4.5l3-0.3l6.1,0l3.4-0.2l4.1-0.3    l4-0.2l7-0.8l2-0.2l1.1,0l8-0.8l6.5-0.5l5-0.2l7.2,0v-1.5l-1.5-0.1l-2.5,0l-3.7-0.3l-4,0.3l-3.9,0.5l-2.1,0l-2.7,0.2l-3.8,0.6    l-4.3,0.3l-4.4,0.5l-4.2,0.2l-3.4,0.3l-2.9,0.2l-1.4,0.3c-0.1,0-0.2,0-0.3,0h-2.2l-2.9,0.2l-3.6,0l-3.4,0.3l-4.8,0V527.7z"/>
		<polygon class="st10" points="420.8,528.2 417.9,528.2 417.9,525.7 424.2,525.7 427.9,525.3 432.1,525.2 436.5,524.8 440.7,524.7     444.4,524.3 450.9,523.7 462.7,522.7 467.1,522.2 473.6,522.2 476.8,522.4 480.9,522.4 480.9,524.9 476.7,524.9 473.5,524.7     467.3,524.7 462.9,525.2 451.1,526.2 440.9,527.2 436.6,527.4 432.2,527.7 428,527.9 424.3,528.2   "/>
		<path class="st10" d="M420,551.4h-3c-0.7,0-1.3-0.6-1.3-1.3v-4c0-0.7,0.6-1.3,1.3-1.3h3l2.8-0.3l7.1,0l2.9-0.2l2.1,0l1.4-0.3    c0.1,0,0.1,0,0.2,0l3-0.2l3.4-0.3l4.1-0.5l4.6-0.2l4-0.5l4-0.3l4.8-0.5l8.1-0.7l3.7,0l2.8,0.3l1.7,0c0.2,0,0.3,0,0.5,0.1l0.8,0.3    c0.5,0.2,0.8,0.7,0.8,1.2v3.8c0,0.7-0.6,1.3-1.3,1.3h-8.5l-11.3,0.8l-9.1,0.7l-1.9,0.3l-3.3,0.2l-3.9,0.3l-3.9,0.5l-4.3,0.2    l-3.4,0l-2.4,0.3c-0.1,0-0.1,0-0.2,0H426l-3.1,0.2L420,551.4z M418.3,548.9h4.5l3.1-0.2l3.5,0l2.4-0.3c0.1,0,0.1,0,0.2,0h3.5    l4.1-0.2l3.9-0.5l4-0.3l3.2-0.2l1.8-0.3c0.1,0,0.1,0,0.2,0h1l19.5-1.5l7.3,0v-1.6H479l-2.8-0.3l-3.5,0l-10,0.8l-2.8,0.3l-4,0.3    l-4.1,0.5l-4.6,0.2l-4,0.5l-3.5,0.3l-2.9,0.2l-1.4,0.3c-0.1,0-0.2,0-0.3,0h-2.2l-2.9,0.2l-7,0l-2.8,0.3l-1.9,0V548.9z"/>
		<path class="st10" d="M420.8,549.4h-3v-2.5h6.3l3.8-0.2l4.1-0.3l4.5-0.2l4.1-0.3l3.7-0.5l6.5-0.5l6.1-0.8l5.8-0.2l4.4-0.5l1.3,0    l1.2-0.3c0.1,0,0.2,0,0.3,0h1.7c0.1,0,0.1,0,0.2,0l1.9,0.3h3l4.2,0.2l-0.1,2.5l-4.1-0.2l-3.1,0c-0.1,0-0.1,0-0.2,0l-1.9-0.3h-1.4    l-1.2,0.3c-0.1,0-0.2,0-0.3,0h-1.3l-4.3,0.5l-5.7,0.2l-6,0.8l-6.5,0.5l-3.7,0.5l-4.2,0.3l-4.5,0.2l-4.1,0.3l-3.9,0.2L420.8,549.4z    "/>
		<path class="st10" d="M417,563.7c-0.3,0-0.6-0.1-0.8-0.3c-0.3-0.2-0.5-0.6-0.5-1v-4.1c0-0.7,0.6-1.3,1.3-1.3h6l3.4-0.3l6.6,0    l2.1-0.2l1.6,0l2.8-0.3l3.4-0.5l4.3-0.2l4.4-0.5l4.2-0.3l3.9-0.5l2.9-0.2l2,0l3.9-0.6c0.1,0,0.1,0,0.2,0H479c0.1,0,0.2,0,0.2,0    l1.7,0.3h0.7c0.7,0,1.3,0.6,1.3,1.3v4c0,0.7-0.6,1.3-1.3,1.3h-0.5l-1.5-0.2l-6.5,0l-4.9,0.2l-6.4,0.5l-8.1,0.8l-1.1,0l-5,0.5    l-4,0.5l-4.1,0.2l-4.1,0.3l-3.5,0.2l-2.5,0l-3.4,0.3l-8.1,0l-0.7,0.1C417.2,563.7,417.1,563.7,417,563.7z M418.3,561h7.7l3.4-0.3    l2.6,0l3.4-0.2l4.1-0.3l4-0.2l7-0.8l2-0.2l1.1,0l8-0.8l6.5-0.5l5-0.2l7.2,0.1v-1.4l-1.5-0.3h-10.2l-3.9,0.6c-0.1,0-0.1,0-0.2,0h-2    l-2.7,0.2l-3.9,0.5l-4.2,0.3l-4.4,0.5l-4.2,0.2l-3.4,0.5l-3,0.3l-1.6,0l-2.1,0.2l-6.6,0l-3.4,0.3l-4.8,0V561z"/>
		<polygon class="st10" points="420.8,561.5 417.9,561.5 417.9,559 424.2,559 427.9,558.7 432.1,558.7 436.5,558.5 440.6,558     444.4,557.7 450.9,557 462.7,556 467.1,555.5 473.6,555.5 476.8,555.7 481,556 480.8,558.5 476.6,558.2 473.5,558 467.3,558     462.9,558.5 451.1,559.5 436.7,561 432.2,561.2 428,561.2 424.3,561.5   "/>
		<path class="st10" d="M417.9,585.1H417c-0.7,0-1.3-0.6-1.3-1.3v-4.1c0-0.7,0.6-1.3,1.3-1.3h0.8l2.1-0.2l6.6,0l3.4-0.3l3.1,0    l2.1-0.2l1.6,0l2.8-0.3l3.6-0.2l8.5-1l4.2-0.3l3.9-0.2l2.7-0.5c0.1,0,0.1,0,0.2,0h2l3.8-0.5l10.6,0l1.9,0.2l0.7,0    c0.7,0,1.3,0.6,1.3,1.3v4c0,0.7-0.6,1.3-1.3,1.3h-0.5l-1.5-0.2l-6.5,0l-4.9,0.2l-6.4,0.7l-8,0.7l-0.8,0.3c-0.1,0-0.3,0.1-0.4,0.1    h-1.9l-3.1,0.5l-4.1,0.2l-3.9,0.3l-4.2,0.2l-3.4,0.3l-2.6,0l-3.4,0.2l-5.9,0l-2.1,0.3C418,585.1,417.9,585.1,417.9,585.1z     M418.3,580.9v1.6l1.5-0.2c0.1,0,0.1,0,0.2,0h6l3.4-0.2l2.5,0l3.4-0.3l4.2-0.2l3.9-0.3l4-0.2l3-0.5c0.1,0,0.1,0,0.2,0h1.8l0.8-0.3    c0.1,0,0.2-0.1,0.3-0.1l8.1-0.7l6.4-0.7l5.1-0.2l6.7,0l0.6,0.1v-1.4l-1.5-0.1l-10.3,0l-3.8,0.5l-2,0l-2.7,0.5c-0.1,0-0.1,0-0.2,0    l-4,0.2l-4.1,0.3l-8.6,1l-3.6,0.2l-2.9,0.3l-1.6,0l-2.1,0.2l-3.1,0l-3.4,0.3l-6.6,0L418.3,580.9z"/>
		<path class="st10" d="M418.7,583.1h-0.8v-2.5h0.7l2.1-0.3c0.1,0,0.1,0,0.2,0h7.1l4.1-0.2l4.4-0.3l4.1-0.2l3.7-0.6l6.6-0.7    l17.5-1.5l5.1,0l3.2,0.2l4.2,0.3l-0.2,2.5l-4.1-0.3l-3.1-0.2l-4.9,0l-1.2,0.2l-16.3,1.3l-6.4,0.7l-3.7,0.7c-0.1,0-0.1,0-0.2,0    l-4.1,0.2l-4.4,0.3l-4.2,0.2l-7.1,0l-2.1,0.3C418.8,583.1,418.8,583.1,418.7,583.1z"/>
		<path class="st10" d="M417,597.2c-0.3,0-0.6-0.1-0.8-0.3c-0.3-0.2-0.5-0.6-0.5-1v-4c0-0.6,0.4-1.1,1-1.2l0.8-0.2    c0.1,0,0.2,0,0.2,0h5.1l3.4-0.3l6.6,0l2.1-0.2l1.6,0l2.8-0.3l3.4-0.5l4.3-0.2l4.4-0.5l4.2-0.3l6.7-0.8l2.1,0l3.8-0.5l10.6,0    c0.1,0,0.2,0,0.2,0l1.7,0.3h0.7c0.7,0,1.3,0.6,1.3,1.3v4c0,0.7-0.6,1.3-1.3,1.3h-0.5l-1.5-0.2l-6.5,0l-4.9,0.2l-6.4,0.5l-9,1    c-0.1,0-0.1,0-0.2,0h-2l-7,0.8l-4.1,0.2l-4.1,0.3l-3.5,0.2l-2.5,0l-3.4,0.3l-8.1,0l-0.7,0.1C417.2,597.2,417.1,597.2,417,597.2z     M418.3,594.5h7.7l3.4-0.3l2.6,0l3.4-0.2l4.1-0.3l4-0.2l7-0.8l2,0l0.9-0.1l8.2-0.8l6.5-0.5l5-0.2l6.7,0l0.6,0.1v-1.4l-1.5-0.3    h-10.3l-3.8,0.5l-2.1,0l-6.6,0.8l-4.2,0.3l-4.4,0.5l-4.2,0.2l-3.4,0.5l-3,0.3l-1.6,0l-2.1,0.2l-6.6,0l-3.4,0.3l-4.8,0V594.5z"/>
		<polygon class="st10" points="417.9,595.2 417.9,592.6 418.7,592.6 420.8,592.5 424.2,592.5 427.9,592.1 432.1,592.1 436.5,592     440.6,591.5 444.4,591.1 450.9,590.5 462.7,589.5 467.1,589 473.6,589 476.8,589.2 481,589.5 480.8,592 476.6,591.7 473.5,591.5     467.3,591.5 462.9,592 451.1,593 436.7,594.5 432.2,594.7 428,594.7 424.3,595 420.8,595   "/>
		<path class="st10" d="M577.2,484.9c-0.2,0-0.3,0-0.5-0.1l-0.6-0.2h-8.2l-3.2-0.2l-2.4,0l-3.8-0.3l-3.9-0.2l-4-0.3l-4-0.5l-3.1-0.2    l-2.3-0.3h-0.7l-8.1-0.7l-6.5-0.7l-5.3-0.3l-6.1,0l-1.4,0.3c-0.1,0-0.2,0-0.3,0h-0.3c-0.7,0-1.3-0.6-1.3-1.3v-4.1    c0-0.7,0.6-1.3,1.3-1.3h0.5l1.7-0.2l10.7,0l4.3,0.5l1.8,0l2.9,0.2l3.7,0.5l4.4,0.3l4.5,0.5l4.1,0.2l3.6,0.5l2.9,0.3l1.4,0    c0.1,0,0.1,0,0.2,0l2.1,0.3h6.4l3.5,0.2l5.1,0c0.2,0,0.3,0,0.5,0.1l0.8,0.3c0.5,0.2,0.8,0.7,0.8,1.2v4.1c0,0.4-0.2,0.8-0.6,1.1    C577.7,484.9,577.4,484.9,577.2,484.9z M564.7,481.9l3.2,0.2l7.9,0v-1.6h-4.7l-3.5-0.2l-6.4,0c-0.1,0-0.1,0-0.2,0L559,480h-1.4    l-3.1-0.3l-3.5-0.5l-4-0.2l-4.6-0.5l-4.4-0.3l-3.7-0.5l-2.7-0.2l-1.9,0l-4.3-0.5l-10.5,0l-1.1,0.1v1.4l0.3-0.1c0.1,0,0.2,0,0.3,0    h6.3l5.4,0.3l6.5,0.7l7.9,0.7l0.7,0c0.1,0,0.1,0,0.2,0l2.3,0.3l3,0.2l4.1,0.5l3.9,0.3l3.9,0.2l3.7,0.3L564.7,481.9z"/>
		<path class="st10" d="M575.8,482.9l-0.8-0.3H570l-3.9-0.2l-4.1,0l-4.6-0.3l-4.3-0.7l-3.8-0.2l-6.6-0.8l-11.6-1l-4.5-0.5l-6.2,0    l-3.1,0.2l-4.1,0.3l-0.2-2.5l4.1-0.3l3.2-0.2l6.4,0l4.6,0.5l5.3,0.5l6.3,0.5l6.5,0.8l3.9,0.2l4.3,0.7l4.4,0.3l4.1,0l3.9,0.2l5.1,0    c0.1,0,0.3,0,0.4,0.1l1,0.3L575.8,482.9z"/>
		<path class="st10" d="M577.2,496.7h-9.3l-3.3-0.3l-2.4,0l-3.7-0.2l-4-0.3l-3.9-0.2l-7.2-0.8l-2.3-0.2l-0.7,0l-8.1-0.8l-6.4-0.5    l-5.2-0.2h-6.3l-1.8,0.2c-0.7,0-1.3-0.6-1.3-1.3v-4c0-0.7,0.6-1.3,1.3-1.3h0.5l1.7-0.2l10.7,0l4.3,0.5l1.8,0l2.9,0.2l3.7,0.5    l4.4,0.3l4.5,0.5l4.1,0.2l3.6,0.5l2.9,0.3l3.5,0l2.9,0.2l3.6,0l3.6,0.3l5.8,0c0.7,0,1.3,0.6,1.3,1.3v4    C578.4,496.1,577.9,496.7,577.2,496.7z M564.7,493.8l3.3,0.3l7.9,0v-1.4h-4.7l-3.6-0.3l-3.5,0l-2.9-0.2l-3.6,0l-3.1-0.3l-3.5-0.5    l-4-0.2l-4.6-0.5l-4.4-0.3l-3.7-0.5l-2.7-0.2l-1.9,0l-4.3-0.5l-10.5,0l-1.1,0.1v1.4l0.4,0l6.4,0l5.3,0.2l6.5,0.5l8,0.8l0.7,0    l2.4,0.2l7.2,0.8l3.9,0.2l4,0.3l3.6,0.2L564.7,493.8z"/>
		<polygon class="st10" points="576.2,494.7 570,494.7 566.1,494.4 562.1,494.4 557.6,494.2 553.3,493.7 549.4,493.4 542.9,492.7     531.3,491.7 526.8,491.2 520.6,491.2 517.6,491.4 513.4,491.7 513.2,489.2 517.4,488.9 520.6,488.7 526.9,488.7 536.8,489.7     543.1,490.2 557.8,491.7 562.1,491.9 566.2,491.9 570.1,492.2 576.2,492.2   "/>
		<path class="st10" d="M577.2,517.9h-9.3l-3.2-0.2l-2.4,0l-3.8-0.3l-3.9-0.2l-4-0.3l-4-0.5l-3.1-0.2l-2.3-0.3h-0.7l-14.5-1.2    l-5.3-0.3l-6.1,0l-1.4,0.3c-0.1,0-0.2,0-0.3,0h-0.3c-0.7,0-1.3-0.6-1.3-1.3v-4.1c0-0.7,0.6-1.3,1.3-1.3h0.5l1.7-0.2l10.7,0    l4.3,0.5l1.8,0l2.9,0.2l3.7,0.5l4.4,0.3l4.5,0.5l4.1,0.2l3.6,0.5l2.9,0.3l3.5,0l2.9,0.2l3.6,0l3.6,0.3l5.8,0    c0.7,0,1.3,0.6,1.3,1.3v4C578.4,517.4,577.9,517.9,577.2,517.9z M564.7,515.2l3.2,0.2l7.9,0v-1.4h-4.7l-3.6-0.3l-3.5,0l-2.9-0.2    l-3.6,0l-3.1-0.3l-3.5-0.5l-4-0.2l-4.6-0.5l-4.4-0.3l-3.7-0.5l-2.7-0.2l-1.9,0l-4.3-0.5l-10.5,0l-1.1,0.1v1.4l0.3-0.1    c0.1,0,0.2,0,0.3,0h6.3l5.4,0.3l14.4,1.2l0.7,0c0.1,0,0.1,0,0.2,0l2.3,0.3l3,0.2l4.1,0.5l3.9,0.3l3.9,0.2l3.7,0.3L564.7,515.2z"/>
		<polygon class="st10" points="576.2,515.9 570,515.9 566.2,515.8 562.1,515.8 557.5,515.4 553.3,514.9 549.4,514.8 542.9,513.9     531.3,512.9 526.8,512.5 520.6,512.5 517.6,512.6 513.4,513 513.2,510.4 517.4,510.1 520.6,509.9 526.9,509.9 536.8,510.9     543.1,511.4 549.6,512.2 553.5,512.4 557.8,512.9 562.2,513.2 566.2,513.2 570.1,513.4 576.2,513.4   "/>
		<path class="st10" d="M577.2,530.2h-5.8l-3.6-0.3l-5.5,0l-3.7-0.2l-4-0.3l-3.9-0.2l-7.2-0.8l-2.3-0.2l-0.7,0l-8.1-0.8l-6.4-0.5    l-5.2-0.2l-7.5,0c-0.4,0.2-0.9,0.2-1.2-0.1c-0.4-0.2-0.6-0.6-0.6-1.1v-4.1c0-0.7,0.6-1.3,1.3-1.3h0.5l1.7-0.2l3.1,0l3.5-0.3    c0.1,0,0.1,0,0.2,0l4,0.3l4.2,0.5l1.8,0l2.9,0.2l3.8,0.7l4.3,0.3l4.5,0.5l4.1,0.2l3.6,0.3l2.9,0.2c0.1,0,0.1,0,0.2,0l1.4,0.3h2    l2.9,0.2l3.6,0l3.6,0.3l5.8,0c0.7,0,1.3,0.6,1.3,1.3v4C578.4,529.6,577.9,530.2,577.2,530.2z M564.7,527.3h3.1l3.6,0.3l4.4,0v-1.4    h-4.7l-3.6-0.3l-3.5,0l-2.9-0.2l-2.1,0c-0.1,0-0.2,0-0.3,0l-1.4-0.3l-2.9-0.2l-3.5-0.3l-4.1-0.2l-4.6-0.5l-4.4-0.3l-3.8-0.7    l-2.7-0.1l-1.9,0l-4.3-0.5l-3.8-0.3l-3.5,0.3l-3.1,0l-1.1,0.1v1.5h6.9l5.3,0.2l6.5,0.5l8,0.8l0.7,0l2.4,0.2l7.2,0.8l3.9,0.2l4,0.3    l3.6,0.2L564.7,527.3z"/>
		<polygon class="st10" points="576.2,528.2 570,528.2 566.1,527.9 562,527.7 557.5,527.4 553.4,527.2 549.4,526.9 542.9,526.2     531.3,525.2 526.8,524.7 520.6,524.7 517.6,524.9 513.3,524.9 513.3,522.4 517.5,522.4 520.6,522.2 526.9,522.2 531.6,522.7     536.8,523.2 543.1,523.7 553.6,524.7 557.7,524.8 562.2,525.2 566.3,525.3 570.1,525.7 576.2,525.7   "/>
		<path class="st10" d="M577.2,551.4h-5.8l-3.5-0.2l-3.1,0c-0.1,0-0.1,0-0.2,0l-2.4-0.3h-3.6l-4-0.2l-4.1-0.5l-3.9-0.3l-3.1-0.2    l-2.3-0.3h-0.7l-14.5-1.2l-5.3-0.3l-8,0c-0.7,0-1.3-0.6-1.3-1.3v-3.8c0-0.4,0.2-0.8,0.6-1.1l0.5-0.3c0.2-0.1,0.5-0.2,0.7-0.2h1.8    l2.8-0.3l3.8,0l10.2,0.8l2.9,0.3l3.6,0.3l4.5,0.5l4.4,0.2l7.7,0.8l2.9,0.2c0.1,0,0.1,0,0.2,0l1.4,0.3h2l2.9,0.2l7.1,0l3.1,0.3    l2.8,0c0.7,0,1.3,0.6,1.3,1.3v4C578.4,550.8,577.9,551.4,577.2,551.4z M564.8,548.7h3.1l3.5,0.2l4.5,0v-1.4h-1.7l-3.1-0.3l-7,0    l-2.9-0.2l-2.1,0c-0.1,0-0.2,0-0.3,0l-1.4-0.3l-2.9-0.2l-3.5-0.3l-4.2-0.5l-4.4-0.2l-13-1.3l-8.1-0.7l-3.5,0l-2.8,0.3l-1.2,0v1.6    h6.9l5.4,0.3l14.4,1.2l0.7,0c0.1,0,0.1,0,0.2,0l2.3,0.3l3,0.2l4,0.3l4,0.5l3.9,0.2l3.6,0c0.1,0,0.1,0,0.2,0L564.8,548.7z"/>
		<path class="st10" d="M576.2,549.4H570l-3.9-0.2l-4.2-0.3l-4.4-0.2l-4.2-0.3l-4-0.5l-6.4-0.5l-6.4-0.8l-5.2-0.2l-4.6-0.5l-1.2,0    c-0.1,0-0.2,0-0.3,0l-1.2-0.3h-1.4l-1.9,0.3c-0.1,0-0.1,0-0.2,0h-3.1l-4.1,0.2l-0.1-2.5l4.1-0.2l3.1,0l1.9-0.3c0.1,0,0.1,0,0.2,0    h1.7c0.1,0,0.2,0,0.3,0l1.2,0.3h1.2l4.6,0.5l5.2,0.2l6.4,0.8l6.4,0.5l4,0.5l4.1,0.3l4.4,0.2l4.2,0.3l3.8,0.2l6.1,0V549.4z"/>
		<path class="st10" d="M577.2,563.5h-5.8l-3.6-0.3l-3,0l-2.6-0.2l-3.6,0l-4.1-0.5l-3.9-0.3l-3.9-0.2l-5.5-0.5l-0.7,0l-8.1-0.8    l-6.4-0.5l-5.2-0.2h-8.1c-0.7,0-1.3-0.6-1.3-1.3v-4.1c0-0.7,0.6-1.3,1.3-1.3h2.3l2.9-0.2l3.7,0l4,0.2l4.2,0.3l2.1,0.3l2.7,0.2    l3.7,0.3l4.5,0.5l4.4,0.2l7.7,0.8l2.9,0.2c0.1,0,0.1,0,0.2,0l1.4,0.3h4.8l3.7,0.2l3.4,0l3.1,0.3l2.8,0c0.7,0,1.3,0.6,1.3,1.3v4    C578.4,562.9,577.9,563.5,577.2,563.5z M567.9,560.6l3.6,0.3l4.4,0v-1.4h-1.7l-3.1-0.3l-3.3,0L564,559l-4.9,0c-0.1,0-0.2,0-0.3,0    l-1.4-0.3l-2.9-0.2l-3.5-0.3l-4.2-0.5l-4.4-0.2l-8.2-0.8l-2.8-0.2l-2.1-0.3l-4-0.3l-3.9-0.2l-3.6,0l-4,0.2v1.6h6.9l5.3,0.2    l6.5,0.5l8,0.8l0.7,0l2.4,0.2l3.2,0.3l3.9,0.2l4,0.3l4,0.5l3.5,0l2.6,0.2L567.9,560.6z"/>
		<path class="st10" d="M576.2,561.5h-3l-3.3-0.3l-3.7,0L562,561l-4.5-0.3l-4.1-0.2l-4.1-0.5l-6.4-0.5l-6.4-0.8l-5.2-0.2l-4.6-0.5    c-0.1,0-0.1,0-0.2,0l-1.2-0.3h-2.7l-1.9,0.3c-0.1,0-0.1,0-0.2,0h-3.1l-4.1,0.2l-0.1-2.5l4.1-0.2l3.1,0l1.9-0.3c0.1,0,0.1,0,0.2,0    h3c0.1,0,0.2,0,0.3,0l1.2,0.3l4.4,0.5l5.2,0.2l6.4,0.8l6.4,0.5l4,0.5l4,0.2l4.5,0.3l4.1,0.2l3.8,0l3.3,0.3l2.9,0V561.5z"/>
		<path class="st10" d="M577.2,585.1h-0.8c-0.1,0-0.1,0-0.2,0l-2.1-0.3h-6.2l-3.2-0.2l-2.4,0l-3.8-0.3l-3.9-0.2l-4-0.3l-3.9-0.2    l-3.2-0.5h-2.2c-0.2,0-0.3,0-0.5-0.1l-0.7-0.3l-7.8-0.6l-6.5-0.7l-5.2-0.2h-6.3l-1.8,0.2c-0.7,0-1.3-0.6-1.3-1.3v-4    c0-0.7,0.6-1.3,1.3-1.3h0.5l1.7-0.2l10.7,0l4.3,0.5l1.8,0c0.1,0,0.1,0,0.2,0l2.8,0.5l3.5,0.1l4.5,0.3l8.7,1l3.4,0.2l3.1,0.3l1.4,0    l2.3,0.2l2.7,0l3.8,0.3l6.4,0l2.3,0.2l0.7,0c0.7,0,1.3,0.6,1.3,1.3v4.1C578.4,584.5,577.9,585.1,577.2,585.1z M571.4,582.2h2.8    c0.1,0,0.1,0,0.2,0l1.5,0.2v-1.6l-1.8-0.1l-6.4,0l-3.8-0.3l-2.7,0l-2.3-0.2l-1.4,0l-3.1-0.3l-3.4-0.2l-8.7-1l-4.4-0.3l-3.6-0.2    l-2.9-0.5h-1.9l-4.3-0.5l-10.5,0l-1.1,0.1v1.4l0.4,0l6.4,0l5.3,0.2l6.6,0.7l7.9,0.7c0.1,0,0.2,0,0.4,0.1l0.6,0.2h2.1    c0.1,0,0.1,0,0.2,0l3.1,0.5l3.8,0.2l4,0.3l3.9,0.2l3.7,0.3l2.4,0l3.2,0.2L571.4,582.2z"/>
		<path class="st10" d="M576.2,583.1h-1c-0.1,0-0.1,0-0.2,0l-1.9-0.3h-6.9l-4.2-0.2l-4.5-0.3l-4.1-0.2l-4.1-0.7l-6.4-0.7l-17.4-1.5    l-4.8,0l-3.1,0.2l-4.1,0.3l-0.2-2.5l4.1-0.3l3.2-0.2l5,0l1.5,0.2l4.4,0.3l5.3,0.5l6.3,0.5l6.5,0.7l4.1,0.7l4,0.1l4.5,0.3l4.1,0.2    l6.9,0c0.1,0,0.1,0,0.2,0l1.9,0.3h0.9V583.1z"/>
		<path class="st10" d="M577.2,597.2c-0.1,0-0.2,0-0.2,0l-0.7-0.1h-8.3l-3.3-0.3l-2.4,0l-3.7-0.2l-4-0.3l-3.9-0.2l-7.2-0.8l-2.2,0    c-0.1,0-0.2,0-0.2,0l-0.8-0.2l-7.8-0.8l-6.4-0.5l-5.2-0.2h-6.3l-1.8,0.2c-0.7,0-1.3-0.6-1.3-1.3v-4c0-0.7,0.6-1.3,1.3-1.3h0.4    l1.7-0.3c0.1,0,0.2,0,0.2,0h10.6l4.3,0.5l1.8,0l6.6,0.8l4.4,0.3l4.5,0.5l4.1,0.2l3.6,0.5l2.9,0.3l1.4,0l2.3,0.2l6.4,0l3.6,0.3l5,0    c0.1,0,0.2,0,0.2,0l0.8,0.2c0.6,0.1,1,0.6,1,1.2v4c0,0.4-0.2,0.7-0.5,1C577.7,597.1,577.5,597.2,577.2,597.2z M564.7,594.1    l3.3,0.3l7.9,0V593h-4.7l-3.6-0.3l-6.3,0l-2.3-0.2l-1.4,0l-3.1-0.3l-3.5-0.5l-4-0.2l-4.6-0.5l-4.4-0.3l-6.5-0.8l-1.8,0l-4.3-0.5    l-10.3,0l-1.2,0.2v1.4l0.4,0l6.4,0l5.3,0.2l6.5,0.5l8.8,1h2.2l3.3,0.3l4,0.5l3.9,0.2l4,0.3l3.6,0.2L564.7,594.1z"/>
		<polygon class="st10" points="576.2,595.2 575.2,595.2 573.1,595 570,595 566.1,594.7 562.1,594.7 557.6,594.5 553.3,594     549.4,593.7 542.9,593 531.3,592 526.8,591.5 520.6,591.5 517.6,591.7 513.4,592 513.2,589.5 517.4,589.2 520.6,589 526.9,589     536.8,590 543.1,590.5 557.8,592 562.1,592.1 566.2,592.1 570.1,592.5 573.2,592.5 575.3,592.6 576.2,592.6   "/>
		<rect x="315.9" y="419.4" class="st2" width="369.3" height="9.8"/>
		<path class="st10" d="M685.2,429.6H315.9c-0.3,0-0.5-0.2-0.5-0.5v-9.8c0-0.3,0.2-0.5,0.5-0.5h369.3c0.3,0,0.5,0.2,0.5,0.5v9.8    C685.7,429.4,685.5,429.6,685.2,429.6z M316.4,428.7h368.3v-8.8H316.4V428.7z"/>
		<path class="st2" d="M296.4,248.3h407.9v273.2l-0.3,6.5l-0.5,6.6l-0.5,6.1l-1,6.3l-0.5,2l-2.5,12.3l-3.6,12.3l-4.5,11.8l-5.1,11.4    l-6.3,11.1l-6.5,10.4l-1,1.7l-7.1,10.1l-8,9.8l-8.3,9.4l-8.6,9.1l-9,8.5l-9.1,8.3l-9.1,7.8l-9.4,7.6l-9.3,7l-9.3,6.6l-9.1,6.3    l-1.7,1l-9,5.6l-8.6,5.3l-8.1,4.8l-8,4.5l-7.1,4.1l-6.8,3.5l-5.8,3l-5.3,2.8l-4.6,2.2l-3.6,1.5l-4.8,2.3l-2,0.7l-2-0.7l-4.6-2.3    l-3.6-1.5l-9.9-4.8l-6-3l-6.6-3.5l-7.3-4l-8-4.5l-8.3-5.1l-8.6-5.3l-9-5.6l-1.7-1l-9.1-6.3l-9.3-6.6l-9.3-7l-9.4-7.6l-9.1-8    l-9.1-8.3l-9.1-8.8l-8.6-9.3l-8.1-9.6l-8-9.9l-8.3-12.3l-6.8-10.9l-6-11.3l-5.5-11.8l-4.3-12.1l-3.8-12.8l-2.7-12.8l-0.5-2l-1-6.5    l-0.5-6.6l-0.5-6.8v-275H296.4z M306.5,258.1v265.5l0.5,6.8l0.5,6.6l0.8,4.8l2.5,12.6l3.6,12.8l4.5,12.3l5.5,11.6l6,11.3l6.6,10.9    l6.3,8.8l7.8,10.1l8.1,9.4l8.6,9.3l9.1,8.8l9.3,8.3l9.1,8.1l9.3,7.5l9.4,7.1l9.1,6.5l9.1,6.3l7.3,4.8l8.6,5.3l8.3,5l8,4.5l7.1,4.1    l6.8,3.5l6,3l9.8,4.8l3.8,1.5l2.8,1.5l3-1.5l3.6-1.5l4.6-2.3l5.3-2.8l6-3l6.6-3.5l7.3-4l7.6-4.6l8.1-4.6l8.6-5.3l7.3-4.8l9.1-6.3    l9.1-6.5l9.4-7.1l9.3-7.5l9.1-7.8l9.3-8.3l8.8-8.5l8.6-9.1l8.5-9.6l7.8-9.8l6.5-9l6.3-9.8l6.1-11.3l5.1-11.4l4.5-11.8l3.6-12.3    l2.8-12.1l0.7-4.6l0.5-6.1l0.5-6.6l0.3-6.5V258.1H306.5z"/>
		<path class="st10" d="M500.2,752.2c-0.1,0-0.1,0-0.2,0l-2-0.7l-4.7-2.3l-3.6-1.5l-10-4.8l-6-3l-6.6-3.5l-7.3-4l-8-4.5L435,717.5    l-10.6-6.6l-9.1-6.3l-9.3-6.6l-9.3-7l-9.5-7.6l-9.1-8L369,667l-9.1-8.8l-8.6-9.3l-8.1-9.6l-8-10l-8.3-12.3l-6.8-11l-6-11.3    l-5.5-11.8l-4.3-12.1l-3.8-12.8l-2.7-12.8l-0.5-2l-1-6.5l-1-13.5l0-275c0-0.3,0.2-0.5,0.5-0.5h408.6c0.3,0,0.5,0.2,0.5,0.5v273.2    l-0.3,6.5l-1,12.8l-1,6.3l-0.5,2l-2.5,12.2l-3.7,12.3l-4.5,11.8l-5.2,11.5l-6.3,11.1l-7.5,12.1l-7.1,10.1l-8,9.8l-8.3,9.5    l-8.6,9.1l-9,8.5l-9.1,8.3l-9.1,7.8l-9.5,7.6l-9.3,7l-9.3,6.6l-9.1,6.3l-1.7,1l-8.9,5.6l-8.6,5.3l-8.1,4.8l-8,4.5l-7.1,4.1    l-12.6,6.5l-5.3,2.8l-4.7,2.2l-3.7,1.5l-4.8,2.3l-2,0.7C500.4,752.2,500.3,752.2,500.2,752.2z M296.2,248.8v274.5l1,13.4l1,6.4    l0.5,1.9l2.7,12.8l3.8,12.7l4.3,12.1l5.5,11.7l6,11.2l6.8,10.9l8.3,12.3l7.9,9.9l8.1,9.6l8.6,9.3l9.1,8.8l9.1,8.3l9.1,7.9l9.4,7.6    l9.3,7l9.3,6.6l9.1,6.3l1.6,1l9,5.6l16.9,10.4l7.9,4.5l7.3,4l6.6,3.5l6,3l9.9,4.8l3.6,1.5l4.7,2.3l1.8,0.6l1.8-0.6l4.8-2.3    l3.7-1.5l4.6-2.1l5.3-2.8l12.6-6.5l7.1-4.1l8-4.5l8.1-4.8l8.6-5.3l10.6-6.6l9.1-6.3l9.3-6.6l9.3-7l9.4-7.6l9.1-7.8l9.1-8.3    l8.9-8.4l8.6-9.1l8.3-9.4l7.9-9.8l7.1-10.1l1-1.6l6.5-10.4l6.3-11.1l5.1-11.4l4.5-11.7l3.6-12.2l2.5-12.2l0.5-2l1-6.3l1-12.7    l0.3-6.5l0-272.7H296.2z M500.7,741.9c-0.1,0-0.2,0-0.2-0.1l-2.8-1.5l-3.8-1.5l-15.8-7.8l-6.8-3.5l-7.2-4.2l-7.9-4.5l-8.3-5    l-8.6-5.3l-7.3-4.8l-9.1-6.3l-9.1-6.5l-9.5-7.1l-9.3-7.5l-18.4-16.4l-9.1-8.8l-8.6-9.3l-8.1-9.5l-7.8-10.1l-6.3-8.8l-6.7-11    l-6-11.3l-5.5-11.6l-4.5-12.3l-3.7-12.8l-2.5-12.6l-0.8-4.8l-1-13.5l0-265.6c0-0.3,0.2-0.5,0.5-0.5h388.4c0.3,0,0.5,0.2,0.5,0.5    v263.6l-0.3,6.5l-1,12.8l-0.7,4.7l-2.8,12.1l-3.7,12.3l-4.5,11.8l-5.2,11.5l-6.1,11.3l-6.3,9.8l-6.5,9l-7.8,9.8l-8.5,9.6l-8.6,9.1    l-8.8,8.5l-9.3,8.3l-9.1,7.8l-9.3,7.5l-9.5,7.1l-9.1,6.5l-9.1,6.3l-7.3,4.8l-8.6,5.3l-8.1,4.6l-7.6,4.6l-7.3,4l-6.6,3.5l-6,3    l-5.3,2.8l-4.7,2.3l-3.7,1.5l-3,1.5C500.9,741.9,500.8,741.9,500.7,741.9z M307,258.6v265.1l1,13.4l0.8,4.8l2.5,12.6l3.6,12.7    l4.5,12.2l5.5,11.6l6,11.3l6.6,10.9l6.3,8.8l7.8,10.1l8.1,9.4l8.6,9.3l9.1,8.8l18.4,16.4l9.3,7.4l9.4,7.1l9.1,6.5l9.1,6.3l7.3,4.8    l8.6,5.3l8.3,5l7.9,4.5l7.1,4.1l6.8,3.5l6,3l9.8,4.8l3.8,1.5l2.6,1.4l2.8-1.4l3.7-1.5l4.6-2.3l5.3-2.8l6-3l6.6-3.5l7.3-4l7.6-4.6    l8.1-4.6l8.6-5.3l7.3-4.8l9.1-6.3l9.1-6.5l9.4-7.1l9.3-7.5l9.1-7.8l9.3-8.3l8.8-8.4l8.6-9.1l8.4-9.6l7.8-9.8l6.5-8.9l6.3-9.8    l6.1-11.2l5.1-11.4l4.5-11.7l3.6-12.2l2.8-12.1l0.7-4.6l1-12.7l0.3-6.5l0-263H307z"/>
		<path class="st10" d="M496.9,730.5c-0.2,0-0.3,0-0.5-0.1l-0.7-0.2c-0.1,0-0.3-0.1-0.4-0.2l-2-1l-3.2-1.5l-4.2-2.2l-5.4-2.4    l-6.2-3.2l-7.2-3.8l-16.5-9.5l-8.8-5.5l-9.5-6.2l-9.5-6.7l-10-7.1l-10-7.5l-9.9-8.4l-10-8.8l-9.7-9.2l-9.5-9.8l-8.9-10.4    l-8.4-10.9l-7.9-11.4l-7-11.5l-6.5-12.7l-5.5-12.5c0-0.1-0.1-0.1-0.1-0.2l-4.1-13.3l-3.4-13.9c0-0.1,0-0.1,0-0.2l-2-14.1    c0-0.1,0-0.1,0-0.2l-0.8-14.8l0-53V264c0-1.1,0.9-2,2-2h370.3c1.1,0,2,0.9,2,2v252c0,0,0,0.1,0,0.1l-0.8,13.9l-1.8,13.9    c0,0.1,0,0.2,0,0.2l-3.3,13.1c0,0.1,0,0.1,0,0.2l-4.3,12.6l-5.4,12.6c0,0.1,0,0.1-0.1,0.2l-6.3,11.9l-7,11.4l-7.9,11.1l-8.5,10.8    l-8.7,10l-19,18.7l-9.9,8.5l-10,8.3l-10,7.5l-9.8,7.1l-9.5,6.7l-9.3,6.2l-8.9,5.2l-8.4,5.3l-14.9,8l-6.3,3.3l-5.5,2.7l-4.1,2.1    l-3.5,1.5l-1.5,0.9c-0.2,0.1-0.4,0.2-0.6,0.3l-0.8,0.2C497.2,730.5,497.1,730.5,496.9,730.5z M497,726.4L497,726.4L497,726.4    l1.4-0.8c0.1,0,0.2-0.1,0.2-0.1l3.5-1.5l4-2.1l5.5-2.7l13.4-7.1l7.6-4.1l8.3-5.2l8.8-5.2l9.2-6.1l9.4-6.6l9.7-7.1l9.9-7.4l9.9-8.2    l9.8-8.4l18.8-18.5l8.5-9.8l8.4-10.7l7.7-10.9l6.9-11.2l6.2-11.7l5.3-12.4l4.2-12.4l3.3-12.9l1.8-13.6l0.8-13.7V266.1H313.3v245.3    l0.8,14.6l2,13.9l3.3,13.7l4.1,13l5.4,12.3l6.4,12.5l6.9,11.3l7.7,11.2l8.2,10.7l8.7,10.2l9.4,9.7l9.6,9.1l9.9,8.7l9.7,8.3    l9.9,7.4l9.9,7.1l9.4,6.6l9.4,6.1l8.8,5.4l16.3,9.4l7.1,3.8l6.1,3.1l5.4,2.4l4.2,2.2l3.2,1.4L497,726.4z"/>
		<path class="st10" d="M408.4,409.9c-0.3,0-0.5,0-0.8-0.1l-0.7-0.2c-0.3-0.1-0.5-0.2-0.8-0.3l-1.8-1l-6.2-3.9l-4.2-2.3l-4.9-2.9    l-5.1-3.2l-5.2-3.1l-5.2-3.4l-5-2.9c-0.1,0-0.1-0.1-0.2-0.1l-5-3.3c-0.1,0-0.1-0.1-0.2-0.1l-10-7.7c-0.2-0.2-0.4-0.4-0.6-0.6    l-5-6.7c-0.1-0.2-0.2-0.4-0.3-0.6l-1.2-2.5c0-0.1-0.1-0.1-0.1-0.2l-0.8-2.2c-0.1-0.3-0.2-0.6-0.2-0.9l-0.2-1.7c0-0.1,0-0.2,0-0.3    v-0.5l-0.2-0.7c-0.1-0.3-0.1-0.6-0.1-0.9v-81.6c0-1.8,1.5-3.3,3.3-3.3h122c1.8,0,3.3,1.5,3.3,3.3V360c0,0.3,0,0.6-0.1,0.9    l-0.5,1.6l-0.5,2.1c0,0.2-0.1,0.3-0.2,0.5l-1,2.5c0,0.1-0.1,0.2-0.1,0.3L469,371c-0.1,0.2-0.3,0.4-0.4,0.6l-3,3.5    c-0.1,0.1-0.2,0.3-0.4,0.4l-4.1,3.5c0,0-0.1,0.1-0.1,0.1l-5.5,4.1c-0.1,0.1-0.2,0.1-0.3,0.2l-9.3,5.8l-5,3l-4.8,3l-5.1,2.9    c0,0-0.1,0.1-0.2,0.1l-4.9,2.4l-4.4,2.6l-9.6,5.1l-1.4,0.9c-0.2,0.2-0.5,0.3-0.8,0.4l-0.5,0.2    C409.1,409.8,408.8,409.9,408.4,409.9z M371.9,381.1l5,2.9l5.3,3.4l5.2,3.1l5.1,3.2l4.7,2.8l4.2,2.3c0.1,0,0.1,0.1,0.2,0.1    l6.7,4.1l0.4-0.2c0.1-0.1,0.2-0.1,0.3-0.2l9.6-5.1l4.4-2.6c0.1,0,0.1-0.1,0.2-0.1l4.9-2.4l4.9-2.8l4.7-2.9l5-3l9.1-5.7l5.3-4    l3.9-3.3l2.6-3l1.4-2.7l0.8-2.1l0.4-1.9c0-0.1,0-0.1,0.1-0.2l0.4-1.2v-79.9H351.1v77.8l0.2,0.7c0.1,0.3,0.1,0.6,0.1,0.9v0.8    l0.1,1.1l0.6,1.6l1,2.1l4.5,6l4.1,3.2l5.4,4.1L371.9,381.1z"/>
		<rect x="349.6" y="307.7" class="st10" width="120.7" height="5.9"/>
		<rect x="377.7" y="309.6" class="st10" width="6.1" height="80.1"/>
		
			<rect x="329.6" y="341.2" transform="matrix(2.389162e-03 -1 1 2.389162e-03 19.1047 707.6868)" class="st10" width="69.3" height="6.1"/>
		<rect x="395.4" y="309.6" class="st10" width="6.1" height="91.5"/>
		<rect x="413" y="309.6" class="st10" width="6.1" height="92.7"/>
		<rect x="430.6" y="309.6" class="st10" width="6.1" height="83.2"/>
		<rect x="448.5" y="309.6" class="st10" width="6.1" height="73.8"/>
		<path class="st10" d="M584.6,409.9c-0.4,0-0.7-0.1-1-0.2l-0.5-0.2c-0.2-0.1-0.4-0.1-0.5-0.2l-1.8-1c-0.1-0.1-0.2-0.1-0.3-0.2    l-2.5-1.7l-3.4-1.9l-4.2-2.3c-0.1,0-0.1-0.1-0.1-0.1l-15.1-9.1l-5.2-3.4l-5-2.9c-0.1,0-0.1-0.1-0.2-0.1l-5-3.3    c-0.1,0-0.1-0.1-0.2-0.1l-10-7.6c-0.2-0.1-0.3-0.3-0.5-0.5l-3-3.5c-0.1-0.1-0.2-0.3-0.3-0.4l-2-3.1c-0.1-0.1-0.1-0.2-0.2-0.4    l-2.2-4.7c-0.2-0.3-0.3-0.7-0.3-1.1l-0.2-1.7c0-0.1,0-0.2,0-0.3v-14.8l-0.3-6.2c0-0.1,0-0.1,0-0.2v-62.5c0-1.8,1.5-3.3,3.3-3.3    h122c1.8,0,3.3,1.5,3.3,3.3V360c0,0.2,0,0.4-0.1,0.6l-0.8,3.9c0,0.2-0.1,0.3-0.2,0.5l-1,2.5c-0.1,0.1-0.1,0.3-0.2,0.4l-1.8,3.1    c-0.1,0.1-0.2,0.3-0.3,0.4l-2.8,3.5c-0.1,0.2-0.3,0.3-0.4,0.5l-4.1,3.5c0,0-0.1,0.1-0.1,0.1l-5.5,4.1c-0.1,0-0.1,0.1-0.2,0.1    l-4.5,3c-0.1,0-0.1,0.1-0.2,0.1l-5,2.8l-14.7,8.8c-0.1,0-0.1,0.1-0.2,0.1l-4.7,2.4l-4.2,2.6c-0.1,0-0.1,0.1-0.2,0.1l-7.3,3.8    l-3.8,2.2c-0.3,0.2-0.6,0.3-0.9,0.4l-0.7,0.2C585.2,409.9,584.9,409.9,584.6,409.9z M584,402.6l0.6,0.3l3-1.7l7.3-3.8l4.2-2.6    c0.1,0,0.1-0.1,0.2-0.1l4.7-2.4l19.6-11.5l4.3-2.9l5.3-4l3.8-3.2l2.5-3l1.6-2.7l0.8-2l0.7-3.1v-80.1H527.3v59.1l0.3,6.2    c0,0.1,0,0.1,0,0.2v14.8l0.1,0.9l1.8,3.9l1.7,2.8l2.6,3l4.2,3.3l5.4,4.1l4.8,3.2l5,2.9l5.3,3.4l5.2,3.1l9.7,5.9l4.2,2.3l3.6,2    c0.1,0,0.2,0.1,0.2,0.1L584,402.6z"/>
		<path class="st10" d="M642.6,348.6l-57.3-35.7l-52.8,20.5l-2.1-5.5l54.2-21.1c0.9-0.3,1.8-0.2,2.6,0.2l58.5,36.5L642.6,348.6z"/>
		
			<rect x="531" y="309.5" transform="matrix(0.5349 -0.8449 0.8449 0.5349 -22.1341 600.0927)" class="st10" width="5.9" height="21.4"/>
		
			<rect x="621.5" y="324.6" transform="matrix(0.9078 -0.4195 0.4195 0.9078 -78.993 295.9745)" class="st10" width="24.1" height="5.9"/>
		<path class="st10" d="M597.9,314.8l-4.3-2.3l1-1.8l0.4-2.1v-2.8l-1.3-2.5l-1.9-2.3l-2.2-1.5l-3-0.8l-3,0.3l-3.1,0.9l-2,1.8    l-1.6,2.4l-0.8,2.8v2.2l0.4,2.1l-4.8,1l-0.5-2.3c0-0.2-0.1-0.3-0.1-0.5v-2.8c0-0.2,0-0.5,0.1-0.7l1-3.5c0.1-0.2,0.2-0.5,0.3-0.7    l2-3c0.1-0.2,0.3-0.3,0.4-0.5l2.7-2.3c0.3-0.2,0.6-0.4,0.9-0.5l3.8-1.2c0.2,0,0.3-0.1,0.5-0.1l3.6-0.3c0.3,0,0.6,0,0.8,0.1l3.8,1    c0.3,0.1,0.6,0.2,0.8,0.4l2.8,2c0.2,0.1,0.3,0.3,0.5,0.4l2.3,2.8c0.1,0.1,0.2,0.3,0.3,0.5l1.7,3.3c0.2,0.3,0.3,0.7,0.3,1.1v3.6    c0,0.2,0,0.3,0,0.5l-0.5,2.7c0,0.2-0.1,0.5-0.3,0.7L597.9,314.8z"/>
		<rect x="524" y="303.2" class="st10" width="41.1" height="4.9"/>
		
			<rect x="546.9" y="263.4" transform="matrix(0.453 -0.8915 0.8915 0.453 45.4058 646.1804)" class="st10" width="4.9" height="45.4"/>
		
			<rect x="598.8" y="283.5" transform="matrix(0.8914 -0.4532 0.4532 0.8914 -62.1346 312.5271)" class="st10" width="44.6" height="4.9"/>
		
			<rect x="571" y="273.9" transform="matrix(0.8421 -0.5393 0.5393 0.8421 -61.9144 353.9061)" class="st10" width="4.9" height="17.5"/>
		
			<rect x="588" y="280.2" transform="matrix(0.5412 -0.8409 0.8409 0.5412 35.9716 631.3098)" class="st10" width="17.2" height="4.9"/>
		<rect x="605.8" y="303.2" class="st10" width="40.3" height="4.9"/>
		<rect x="580.6" y="377.9" class="st10" width="49.2" height="5.9"/>
		<rect x="523.1" y="350.3" class="st10" width="18.4" height="5.9"/>
		<rect x="595.9" y="350.3" class="st10" width="50.7" height="5.9"/>
		<rect x="541.5" y="366.4" class="st10" width="56" height="3.4"/>
		<path class="st10" d="M580.6,364.2c-0.4,0-0.8-0.1-1.1-0.3c-0.5-0.3-0.8-0.8-0.9-1.3l-5.5-32.3h-11.1l-3.3,29.8    c-0.1,1-1,1.8-2,1.8h-16.1c-0.6,0-1.2-0.3-1.6-0.8c-0.4-0.5-0.5-1.2-0.3-1.8l7-23.2c0.3-0.9,1-1.4,1.9-1.4h9.8l0.7-6.6    c0.1-1,1-1.8,2-1.8h14.6c1,0,1.8,0.7,2,1.7l1.2,6.8l3.1-1.5c0.9-0.4,1.9-0.2,2.5,0.6l17.7,22.9c0.4,0.5,0.5,1.3,0.3,1.9    c-0.2,0.7-0.8,1.1-1.5,1.3l-19.1,4.3C580.9,364.2,580.8,364.2,580.6,364.2z M578.7,338.8l3.6,20.9l13.9-3.1l-14.8-19L578.7,338.8z     M543.4,357.8H555l2.1-19.1h-7.9L543.4,357.8z"/>
		<rect x="543.7" y="345" class="st10" width="13.9" height="4.9"/>
		<rect x="560.1" y="338.7" class="st10" width="16.1" height="4.9"/>
		<rect x="558.1" y="354.4" class="st10" width="20.2" height="4.9"/>
		<path class="st10" d="M597.1,370.2h-56c-0.5,0-1-0.3-1.2-0.7l-1.5-3.3c-0.2-0.4-0.1-0.8,0.1-1.2c0.2-0.4,0.6-0.6,1.1-0.6h61.3    c0.5,0,1,0.3,1.2,0.8c0.2,0.5,0,1.1-0.4,1.4l-3.8,3.3C597.7,370.1,597.4,370.2,597.1,370.2z M541.8,367.7h54.7l0.9-0.8h-56    L541.8,367.7z"/>
		<path class="st10" d="M496.5,636.5l-4-0.5c-0.3,0-0.5-0.1-0.7-0.2l-2.7-1c-0.2-0.1-0.4-0.2-0.5-0.3l-2.5-1.5    c-0.2-0.1-0.4-0.3-0.6-0.5L484,631c-0.3-0.3-0.5-0.6-0.7-1l-0.7-1.5h-95.9c-1.8,0-3.3-1.5-3.3-3.3V468.1c0-1.8,1.5-3.3,3.3-3.3    H402v6.6H390v150.5h95c1.8,0,3.2,1.4,3.3,3.1l0.8,1.8l0.8,0.8l1.9,1.1l2,0.8l3.6,0.4L496.5,636.5z"/>
		<rect x="493.6" y="465.1" class="st10" width="6.6" height="152.2"/>
		<path class="st10" d="M386.7,504.7h-19.2c-1.8,0-3.3-1.5-3.3-3.3v-18.6c0-1.8,1.5-3.3,3.3-3.3h19.2c1.8,0,3.3,1.5,3.3,3.3v18.6    C390,503.2,388.5,504.7,386.7,504.7z M370.8,498.1h12.6v-12h-12.6V498.1z"/>
		<path class="st10" d="M386.7,613.4h-19.2c-1.8,0-3.3-1.5-3.3-3.3v-18.4c0-1.8,1.5-3.3,3.3-3.3h19.2c1.8,0,3.3,1.5,3.3,3.3v18.4    C390,612,388.5,613.4,386.7,613.4z M370.8,606.8h12.6V595h-12.6V606.8z"/>
		<path class="st10" d="M386.7,559.2h-19.2c-1.8,0-3.3-1.5-3.3-3.3v-18.7c0-1.8,1.5-3.3,3.3-3.3h19.2c1.8,0,3.3,1.5,3.3,3.3v18.7    C390,557.8,388.5,559.2,386.7,559.2z M370.8,552.6h12.6v-12.1h-12.6V552.6z"/>
		<path class="st10" d="M497.3,636.5l-0.8-6.6l3.7-0.5l2.3-0.8l1.8-1.1l0.8-0.8l1.1-2.6c0.4-1.3,1.7-2.3,3.1-2.3h94.8V471.4h-11.8    v-6.6h15.1c1.8,0,3.3,1.5,3.3,3.3v157.1c0,1.8-1.5,3.3-3.3,3.3h-95.9l-0.7,1.5c-0.2,0.4-0.4,0.7-0.7,1l-1.5,1.5    c-0.2,0.2-0.4,0.4-0.6,0.5l-2.5,1.5c-0.2,0.1-0.4,0.2-0.7,0.3l-3,1c-0.2,0.1-0.4,0.1-0.6,0.1L497.3,636.5z"/>
		<path class="st10" d="M626.6,504.7h-19.1c-1.8,0-3.3-1.5-3.3-3.3v-18.6c0-1.8,1.5-3.3,3.3-3.3h19.1c1.8,0,3.3,1.5,3.3,3.3v18.6    C629.9,503.2,628.4,504.7,626.6,504.7z M610.8,498.1h12.5v-12h-12.5V498.1z"/>
		<path class="st10" d="M626.6,613.4h-19.1c-1.8,0-3.3-1.5-3.3-3.3v-18.4c0-1.8,1.5-3.3,3.3-3.3h19.1c1.8,0,3.3,1.5,3.3,3.3v18.4    C629.9,612,628.4,613.4,626.6,613.4z M610.8,606.8h12.5V595h-12.5V606.8z"/>
		<path class="st10" d="M626.6,559.2h-19.1c-1.8,0-3.3-1.5-3.3-3.3v-18.7c0-1.8,1.5-3.3,3.3-3.3h19.1c1.8,0,3.3,1.5,3.3,3.3v18.7    C629.9,557.8,628.4,559.2,626.6,559.2z M610.8,552.6h12.5v-12.1h-12.5V552.6z"/>
		<rect x="493.6" y="422.3" class="st10" width="6.6" height="42.8"/>
	</g>
</g>
</svg>