<?xml version="1.0" standalone="no"?>
  <svg version="1.1"
      baseProfile="full"
     width="890px"
      height="662px"
     
      xmlns="http://www.w3.org/2000/svg"
      >
      <g xmlns="http://www.w3.org/2000/svg" xmlns:xlink="http://www.w3.org/1999/xlink">
      <g transform="rotate(0 439.8568881816175 293.03797367931884)"><svg id="1690739087695" opacity="1" fill="rgb(101, 47, 114)" viewBox="1.440000057220459 -59.689998626708984 121.38999938964844 61.709999084472656" width="421.333776363235" preserveAspectRatio="none" height="271.5959473586376" x="229.19" y="157.24"><path id="textPath" d="M2.45 0L20.52 0C21.02 0 21.53-0.43 21.53-1.01C21.53-1.58 21.02-2.02 20.52-2.02L18.22-2.02C15.05-2.02 12.46-4.61 12.46-7.78L12.46-50.54L34.56 0L63.58 0C64.15 0 64.58-0.43 64.58-1.01C64.58-1.58 64.15-2.02 63.58-2.02L61.34-2.02C58.18-2.02 55.66-4.46 55.58-7.56L55.58-50.40C55.87-53.28 58.32-55.51 61.34-55.51L63.58-55.51C64.15-55.51 64.58-56.02 64.58-56.52C64.58-57.10 64.15-57.60 63.58-57.60L45.50-57.60C44.93-57.60 44.50-57.10 44.50-56.52C44.50-56.02 44.93-55.51 45.50-55.51L47.74-55.51C50.90-55.51 53.57-52.92 53.57-49.75L53.50-7.78L29.59-57.60L2.45-57.60C1.87-57.60 1.44-57.10 1.44-56.52C1.44-56.02 1.87-55.51 2.45-55.51L4.68-55.51C7.85-55.51 10.44-52.92 10.44-49.75L10.44-7.78C10.44-4.61 7.85-2.02 4.68-2.02L2.45-2.02C1.87-2.02 1.44-1.58 1.44-1.01C1.44-0.43 1.87 0 2.45 0ZM26.21-24.55L25.70-25.70C25.85-26.35 25.92-27.00 25.78-27.72C25.70-28.22 25.63-28.94 24.84-29.09C24.62-29.09 24.77-29.23 24.77-29.45C24.84-30.02 24.34-30.17 23.90-30.31C23.83-30.38 23.76-30.38 23.62-30.38L23.26-31.25C23.76-31.75 24.26-32.26 24.70-32.83C26.14-34.63 25.92-36.65 25.49-38.81C24.84-38.59 24.55-38.30 24.26-37.87C23.62-36.94 23.11-35.93 22.82-34.85C22.68-34.34 22.54-33.84 22.32-33.41L21.89-34.34C22.10-35.57 21.60-36.72 20.59-37.44L20.09-38.52L20.16-38.59L21.10-39.02C21.82-39.38 22.32-39.96 22.61-40.68C23.04-41.69 23.26-42.84 23.04-43.99C22.82-45.00 22.32-45.94 21.24-46.22C19.94-46.58 18.72-46.37 17.64-45.65C17.42-45.50 17.35-45.29 17.21-45.07L16.92-45.72L17.93-46.51C18.29-46.73 18.29-47.09 18.36-47.59C18.36-48.02 18.14-48.17 17.64-47.81C17.42-47.66 17.50-47.74 17.35-47.88C16.92-48.67 16.92-48.67 16.42-48.02C16.27-47.88 16.20-47.74 16.13-47.66L15.84-48.31C16.06-48.74 16.34-49.10 16.63-49.46C17.28-50.47 17.50-51.55 17.14-52.70C16.70-54.22 14.98-55.37 13.46-54.86C13.32-54.79 13.18-54.72 13.03-54.72L12.74-55.44L16.06-55.44C16.13-55.30 16.34-55.30 16.56-55.30C16.70-55.37 16.78-55.37 16.85-55.44L17.93-55.44C17.35-55.15 16.99-54.58 17.21-54.14C17.64-53.42 17.78-52.63 18.14-51.91C18.29-51.98 18.36-52.06 18.50-52.06C18.65-52.06 18.50-52.92 18.86-52.20C19.01-51.91 19.51-51.98 19.66-52.34C19.87-53.21 19.94-54.14 19.58-55.01C19.51-55.15 19.44-55.30 19.30-55.44L20.02-55.44C20.02-55.37 20.09-55.30 20.16-55.22C20.59-54.94 20.66-54.43 20.59-53.86C21.67-54.58 22.68-54.86 23.69-54.14C24.05-53.86 24.26-54.14 24.41-54.43C24.55-54.72 24.70-55.08 24.77-55.44L25.42-55.44L25.42-55.30C25.20-54.79 25.06-54.36 24.70-54.00C24.34-53.57 24.34-53.06 24.55-52.56C24.62-52.34 24.91-52.34 24.55-52.20C24.26-52.13 24.26-51.91 24.19-51.70C23.90-50.69 23.26-50.04 22.32-49.61C22.46-49.25 22.75-48.96 22.82-48.60C23.26-47.38 24.34-46.94 25.27-46.37C25.63-46.22 26.06-46.22 26.42-46.37C26.86-46.51 27.14-46.80 27.00-47.30C26.71-48.02 27.07-48.17 27.72-48.24C28.22-48.24 28.80-48.53 28.94-48.96C29.16-49.54 29.59-49.97 29.81-50.47C29.95-50.76 30.10-50.98 30.24-51.19L30.60-50.54C30.38-50.18 30.17-49.90 29.95-49.46C29.66-48.96 29.88-48.17 29.30-47.81C28.80-47.45 28.15-47.81 27.58-47.45C27.65-46.44 27.58-46.30 26.64-45.94C26.35-45.79 26.06-45.65 25.70-45.65C25.34-45.65 25.13-45.50 25.13-45.07C25.06-44.64 24.91-44.21 24.48-43.99C23.90-43.78 23.90-43.34 23.83-42.84C23.62-40.82 22.97-39.17 20.95-38.38C20.88-38.30 20.88-38.23 20.81-38.09C21.53-37.58 22.03-36.72 22.68-36.00C22.90-36.50 23.18-36.86 23.33-37.30C23.83-38.30 24.62-38.95 25.56-39.53C26.06-39.89 26.28-39.74 26.28-39.10C26.14-37.44 26.93-35.86 26.21-34.13C26.78-34.13 27.22-34.13 27.58-34.06C27.94-34.06 28.66-34.20 28.51-33.55C28.44-33.12 27.86-33.48 27.65-33.55C26.57-33.70 25.85-33.41 25.27-32.54C25.06-32.18 24.70-31.82 24.41-31.46C24.12-31.18 24.05-30.96 24.48-30.74C24.84-30.60 25.20-30.31 25.34-30.02C25.63-29.52 25.99-29.45 26.42-29.59C27.00-29.74 27.50-29.95 28.01-30.17C28.15-30.24 28.30-30.24 28.37-30.10C28.44-29.88 28.37-29.81 28.15-29.74C27.72-29.52 27.29-29.23 26.78-29.16C26.28-29.09 26.14-28.80 26.28-28.30C26.42-27.86 26.50-27.36 26.42-26.86C26.35-26.57 26.28-26.28 26.71-26.14C27.00-26.71 27.58-26.93 28.30-26.86C28.58-26.78 28.66-26.64 28.66-26.35C28.58-26.06 28.44-25.92 28.15-26.06C27.86-26.21 27.58-26.21 27.29-25.92C26.93-25.49 26.50-25.06 26.21-24.55ZM21.17-50.11C22.25-50.11 23.69-51.48 23.69-52.63C23.69-53.35 23.26-53.78 22.68-53.86C21.38-54.07 20.23-53.06 20.30-51.62C20.52-51.34 20.59-50.83 20.66-50.40C20.74-50.18 20.95-50.11 21.17-50.11ZM15.34-49.46L15.19-49.75C15.19-49.82 15.26-49.90 15.26-49.90C15.41-50.26 15.62-50.62 15.77-50.98C16.06-52.13 15.77-52.78 14.54-53.50C15.77-53.42 16.20-53.06 16.34-52.27C16.56-51.34 16.13-50.47 15.77-49.61C15.62-49.46 15.55-49.39 15.34-49.46ZM18.29-48.60C19.15-48.31 19.94-48.96 19.94-50.04C19.94-50.62 19.87-51.12 19.30-51.34C18.86-51.48 18.22-51.34 18.00-50.90C17.86-50.62 17.71-50.33 17.64-50.04C17.35-49.46 17.64-48.82 18.29-48.60ZM19.66-46.94C20.16-47.09 20.66-47.02 21.17-46.94C21.96-46.73 22.32-47.02 22.32-47.95C22.32-48.60 21.74-49.32 21.17-49.39C20.52-49.46 20.30-48.89 20.16-48.46C20.02-48.10 20.02-47.95 19.58-48.10C19.08-48.17 18.94-47.74 18.94-47.30C19.01-46.80 19.30-46.87 19.66-46.94ZM39.38-32.26C36.36-32.11 33.91-34.78 34.06-37.37C34.06-38.16 33.98-38.95 34.34-39.67C34.63-40.18 34.56-40.61 34.06-40.90C32.83-41.62 32.11-42.70 31.68-43.99C31.10-45.36 31.10-46.87 31.68-48.24L32.18-47.30C32.18-47.23 32.18-47.16 32.11-47.09C31.61-44.93 32.76-42.26 34.70-41.18C34.99-41.04 35.21-40.82 35.42-40.61L35.50-40.32C34.92-39.38 34.78-38.74 34.70-37.73C34.49-35.06 36.65-32.90 39.10-32.90ZM23.83-44.28C24.62-44.86 24.91-45.58 24.48-46.01C24.12-46.37 23.76-46.73 23.33-47.02C22.97-47.30 22.75-47.02 22.54-46.80C22.25-46.58 22.46-46.44 22.61-46.22C23.11-45.65 23.47-45.00 23.83-44.28ZM26.64-42.62C26.28-42.70 25.92-42.91 25.92-43.34C25.92-43.78 26.35-43.92 26.78-43.99C27.14-43.99 27.36-43.78 27.36-43.42C27.43-42.98 27.07-42.55 26.64-42.62ZM35.93-2.16C36.07-2.30 36.22-2.45 36.29-2.66C36.50-2.95 36.50-3.17 36.22-3.38C35.71-3.74 35.28-4.25 35.42-4.97C35.50-5.26 35.28-5.33 35.06-5.47C34.85-5.54 34.63-5.62 34.42-5.76L33.84-6.98C33.91-6.91 34.06-6.84 34.13-6.70C35.42-5.54 36.79-5.69 38.16-6.19C39.53-6.70 40.25-7.63 40.39-9.14C39.24-9.07 38.74-9.79 38.59-10.94C38.09-10.30 38.09-10.30 38.09-9.72C38.02-7.85 36.94-7.13 35.21-7.85C34.70-8.06 34.49-8.42 34.34-8.86L34.13-9.65C33.91-10.01 33.55-10.15 33.19-10.08C32.90-10.01 32.83-9.72 32.83-9.43L32.83-9.36L31.03-13.39C31.10-14.47 31.68-15.41 32.90-16.27C33.19-16.49 33.55-16.70 33.91-16.78C34.56-16.92 34.63-17.35 34.56-17.93L34.13-20.81C33.84-23.40 32.83-24.48 30.31-24.91C29.66-25.06 29.45-25.42 29.81-25.99C30.17-26.78 30.82-27.14 31.82-27.00C33.48-26.71 35.06-26.42 36.79-26.42C36.65-27.29 36.79-28.08 37.01-28.80C36.79-29.09 36.58-29.09 36.36-29.16C33.70-29.95 32.18-31.82 31.32-34.34C30.89-35.57 31.03-36.86 31.61-38.09C31.82-38.74 31.75-39.10 31.25-39.53C30.53-40.10 29.88-40.82 29.23-41.54C28.73-42.12 28.66-42.77 28.94-43.49C29.30-43.34 29.38-43.06 29.45-42.84C30.02-41.69 30.82-40.68 31.75-39.82C32.90-38.81 32.62-38.95 32.11-37.73C31.90-37.37 31.68-37.01 31.61-36.58C31.39-32.54 35.21-28.37 40.25-29.81C40.32-29.81 40.39-29.81 40.54-29.88L42.41-25.99C42.34-25.85 42.34-25.70 42.34-25.56C42.41-25.27 42.48-25.06 42.41-24.70C42.34-23.83 43.34-22.39 44.14-22.10L44.28-22.10L46.66-17.14C46.51-17.14 46.44-17.14 46.30-17.06C45.94-16.92 45.72-16.63 45.94-16.20C46.01-16.13 46.08-15.98 46.08-15.91C46.15-15.70 46.30-15.48 46.01-15.41C45.79-15.34 45.65-15.48 45.58-15.70C45.22-16.27 45.07-16.85 45.50-17.42C45.65-17.57 45.79-17.71 45.65-17.93C45.50-18.14 45.29-18.00 45.07-17.93C44.57-17.71 44.06-17.64 43.49-17.57C42.77-17.50 42.12-17.64 41.40-17.78C40.68-17.93 40.32-17.50 40.54-16.78C40.68-16.49 41.04-16.34 40.97-15.98C40.68-15.70 40.32-15.77 40.03-15.84C39.38-16.06 38.74-16.20 38.09-16.34C36.29-16.70 34.49-16.63 32.98-15.41C32.40-14.98 31.90-14.47 31.82-13.68C31.61-11.16 33.12-10.22 35.57-10.22C36.86-10.30 38.02-10.94 38.95-12.02C39.17-12.24 39.38-12.53 39.82-12.46C39.74-12.31 39.74-12.17 39.67-12.17C38.81-11.52 39.46-10.73 39.46-10.08C39.46-9.79 39.89-9.58 40.25-9.65C40.90-9.86 41.69-10.08 41.98-10.73C42.34-11.52 42.98-11.45 43.70-11.81C43.56-11.30 43.42-11.02 43.34-10.66C43.34-10.37 43.42-10.01 43.63-9.79C44.14-9.43 45.14-9.29 45.65-9.65C46.58-10.37 47.30-11.16 47.95-12.17C45.86-13.39 43.78-14.26 41.40-14.11C39.74-13.97 38.16-13.46 36.65-12.67C36.29-12.53 36.00-12.17 35.57-12.38C35.50-12.67 35.64-12.82 35.86-12.89C36.65-13.32 37.51-13.75 38.38-14.11C41.04-15.05 43.70-14.76 46.30-13.68C46.94-13.39 47.81-13.32 48.31-12.60C48.38-12.38 48.60-12.38 48.82-12.46L48.89-12.46L49.10-11.95C49.03-11.95 48.96-11.88 48.89-11.88C48.53-11.81 48.24-11.59 48.02-11.38C47.45-10.73 47.02-10.15 46.66-9.43C45.94-8.14 46.15-6.70 47.30-5.54C47.52-6.12 47.38-6.70 47.59-7.13C48.24-8.28 49.03-9.22 50.40-9.36L50.69-8.78C49.61-8.64 48.53-7.99 48.10-6.70C47.95-6.19 47.88-5.69 48.53-5.33C48.67-5.76 48.74-6.12 48.96-6.55C49.18-6.98 49.54-7.20 50.04-7.20C51.34-7.20 51.91-6.55 51.70-5.26C51.55-3.96 50.76-2.95 49.82-2.16L48.67-2.16L48.96-2.45C48.31-2.16 47.66-2.30 46.94-2.45L46.94-2.16L46.51-2.16C46.51-2.52 46.44-2.81 46.30-3.17C46.22-3.46 46.15-3.74 46.51-3.96C46.94-3.67 47.16-3.10 47.81-3.02C48.17-3.02 48.53-3.10 48.67-3.46C48.82-3.82 48.74-4.18 48.31-4.32C47.30-4.68 46.58-5.33 45.94-6.34C45.43-4.75 44.78-3.38 43.92-2.16L43.20-2.16C43.56-2.66 43.85-3.31 44.14-3.89C44.64-4.75 45.14-5.62 45.14-6.70C45.14-6.98 45.29-7.20 45.43-7.34C46.01-7.85 45.94-8.50 45.79-9.22C45.07-9.00 44.42-8.93 43.78-9.14C43.56-9.22 43.34-9.07 43.27-8.86C43.20-8.57 43.27-8.35 43.49-8.28C43.63-8.21 43.85-8.21 43.99-8.14C44.21-8.14 44.35-7.99 44.28-7.78C44.28-7.56 44.14-7.42 43.92-7.42C43.63-7.34 43.27-7.34 42.91-7.27C42.19-7.13 41.47-7.06 41.11-6.34C40.68-5.69 40.82-5.26 41.47-4.90C41.69-4.82 42.05-4.97 42.12-4.54C41.69-4.10 41.04-4.03 40.39-3.82C39.82-3.67 39.10-3.96 38.74-3.24C38.66-3.10 38.45-3.10 38.30-3.17C37.94-3.38 37.73-3.10 37.51-2.95C37.22-2.66 36.94-2.45 36.72-2.16ZM38.38-34.34C38.02-34.56 37.73-34.85 37.58-35.21C37.44-35.42 37.30-35.64 37.58-35.78C37.58-35.86 37.66-35.86 37.66-35.86ZM31.68-27.79C31.32-27.79 31.03-27.79 30.74-28.15C30.53-28.58 30.89-28.73 31.03-28.94C31.32-29.30 30.96-29.52 30.82-29.81C30.74-30.02 30.67-30.24 30.89-30.46C31.10-30.60 31.32-30.53 31.54-30.38C32.33-30.02 32.69-29.30 32.90-28.58C33.05-28.22 32.33-27.79 31.68-27.79ZM40.68-23.33C41.11-23.26 41.62-23.18 41.83-23.62C42.05-24.05 41.76-24.41 41.47-24.77C41.47-24.84 41.33-24.91 41.26-24.98C39.53-26.21 39.24-26.86 39.74-28.87C37.66-29.16 37.37-28.44 37.37-27.07C37.44-25.49 39.17-23.62 40.68-23.33ZM37.87-16.99C39.53-16.56 39.53-16.56 40.03-18.14C40.18-18.36 40.18-18.58 39.96-18.72C39.10-19.37 38.74-20.38 38.30-21.24C38.16-21.60 38.09-21.96 38.16-22.32C38.59-23.76 37.80-24.62 36.79-25.34C36.29-25.78 35.64-26.06 34.78-25.85C35.35-24.77 36.00-23.83 36.07-22.68C35.42-23.62 35.14-24.62 34.42-25.42C33.77-26.06 31.82-26.57 31.03-26.28C30.82-26.21 30.60-26.06 30.60-25.78C30.60-25.49 30.89-25.49 31.10-25.42C33.26-24.77 34.42-23.33 34.70-21.17L35.14-18.00C35.21-17.42 35.50-17.14 36.14-17.21C36.72-17.21 37.30-17.14 37.87-16.99ZM42.91-18.14C45.00-18.14 45.43-18.72 44.93-20.59C44.78-21.17 44.57-21.31 43.99-21.02C43.92-21.02 43.85-20.95 43.85-20.95C42.12-20.09 41.04-20.45 40.46-22.18C40.25-22.82 39.74-23.18 39.31-23.11C38.95-23.11 38.66-22.46 38.74-21.82C38.95-20.09 41.11-18.22 42.91-18.14ZM27.14-22.46L27.07-22.54L27.58-22.54C27.43-22.46 27.29-22.46 27.14-22.46ZM28.30-19.73L28.01-20.38L28.08-20.38C28.37-20.38 28.58-20.23 28.58-20.02C28.58-19.80 28.44-19.73 28.30-19.73ZM40.46-7.06C40.90-7.06 41.04-7.34 41.33-7.49C41.62-7.63 41.98-7.78 42.34-7.85C42.48-7.92 42.62-8.06 42.55-8.21C42.41-8.71 42.62-9.22 42.77-9.65C42.77-9.94 42.77-10.22 42.41-10.30C42.12-10.30 40.97-9.43 40.97-9.22C40.90-8.42 40.68-7.78 40.46-7.06ZM49.46-2.81C50.11-3.24 50.54-3.74 50.83-4.32C50.98-4.68 51.12-4.97 51.19-5.33C51.34-5.98 50.83-6.62 50.26-6.62C49.68-6.70 49.32-6.26 49.32-5.54C49.39-4.68 49.10-3.82 49.46-2.81ZM40.46-4.75C40.10-5.33 40.10-5.90 40.03-6.48C39.74-5.90 38.59-6.05 38.95-5.04C39.24-4.25 39.82-4.68 40.46-4.75ZM100.15 2.02C103.54 2.02 107.14 1.44 110.59 0.58L112.82-0.07C117.65-1.22 120.17-0.36 120.17 1.87L122.83 1.87L122.83-28.58L97.13-28.58C96.55-28.58 96.12-28.15 96.12-27.58C96.12-27.00 96.55-26.57 97.13-26.57L99.94-26.57C102.82-26.57 105.26-24.41 105.62-21.67L105.62-10.37C105.62-4.25 103.90-0.58 100.87-0.07C100.66-0.07 100.37-0.07 100.15 0C91.66 0 86.90-12.96 86.90-28.80C86.90-44.71 92.81-57.60 100.15-57.60C109.80-57.17 113.33-45.50 113.33-35.50C113.33-33.41 115.27-33.98 115.85-35.50L122.83-53.50C118.37-56.09 108.58-59.69 100.15-59.69C82.44-59.69 68.18-45.86 68.18-28.80C68.18-11.81 82.44 2.02 100.15 2.02ZM92.09-55.44C92.16-55.80 92.30-56.09 92.45-56.38L92.59-56.59C92.81-56.66 93.02-56.66 93.31-56.74C92.88-56.38 92.45-55.94 92.09-55.44ZM112.68-50.33C112.61-50.40 112.61-50.54 112.54-50.62C112.61-50.76 112.75-50.83 112.82-50.90C112.97-51.48 113.11-51.98 113.18-52.56C113.33-53.64 113.18-54.58 112.82-55.37C112.97-55.30 113.18-55.22 113.33-55.22C113.83-53.78 113.69-52.06 112.90-50.90ZM88.34-50.26C87.19-50.33 86.33-50.90 85.82-51.91C85.18-52.92 85.68-53.93 86.90-54.50L87.34-54.72C87.70-54.94 88.13-55.08 88.49-55.22C88.42-55.01 88.34-54.79 88.20-54.65C87.98-54.22 87.55-54.00 87.12-53.78C86.04-53.28 85.97-52.34 86.76-51.55C87.26-50.98 87.98-50.90 88.70-50.90L89.21-50.90L88.85-50.26ZM114.19-46.01C114.19-46.15 114.12-46.30 114.05-46.44C115.27-47.38 116.21-48.60 117.07-49.90C117.86-50.98 118.15-52.13 118.22-53.35L118.73-53.14C118.73-52.56 118.58-51.98 118.44-51.41C118.30-50.83 118.73-50.69 119.09-50.69C119.16-50.62 119.30-50.62 119.38-50.62L119.16-50.11C119.02-50.11 118.87-50.18 118.73-50.26C118.30-50.40 118.08-50.33 117.79-49.90C117.00-48.67 115.99-47.59 114.98-46.58C114.77-46.37 114.41-46.22 114.19-46.01ZM84.89-47.88C84.02-47.52 83.02-47.74 82.22-48.67C81.79-49.18 81.58-49.75 81.50-50.40C81.43-50.76 81.43-51.05 81.72-51.34C81.79-49.03 82.87-47.95 84.89-47.88ZM84.38-45.50C82.30-45.65 80.21-47.66 79.92-49.90C80.06-50.04 80.21-50.11 80.28-50.26C80.42-48.46 81.36-47.38 82.80-46.44C83.23-46.22 83.66-46.22 84.17-46.30C85.39-46.51 86.62-46.87 87.70-47.45C87.62-47.30 87.55-47.09 87.55-46.94C86.90-46.66 86.26-46.37 85.61-46.22C85.46-46.15 85.39-46.08 85.54-45.86C86.11-45.94 86.69-46.01 87.26-46.15C87.19-46.01 87.19-45.86 87.12-45.72C86.26-45.50 85.32-45.43 84.38-45.50ZM91.58-1.37L90.94-1.58C91.08-1.87 91.08-2.30 91.08-2.66C91.08-2.74 91.01-2.81 90.94-2.95C89.42-4.90 86.90-5.69 84.53-4.97L84.02-4.75L82.94-5.40L82.94-5.54C82.73-6.48 82.66-7.42 83.09-8.35C83.38-9.07 83.16-9.65 82.73-10.15C82.22-10.66 81.65-11.16 81.07-11.66C79.42-12.89 77.62-13.03 75.96-12.02C75.53-12.53 75.17-13.10 74.81-13.61C75.10-13.61 75.46-13.46 75.82-13.25C76.10-13.03 76.39-12.89 76.75-12.96C78.12-13.39 79.42-13.25 80.71-12.60C80.14-13.68 79.56-14.76 79.42-15.98C79.34-16.27 79.13-16.70 78.70-16.85C77.83-17.21 76.97-17.57 76.03-17.42C75.02-17.28 74.09-16.78 73.44-16.06C73.08-16.70 72.79-17.35 72.50-18.00C73.22-17.78 73.94-18.07 74.66-18.79C75.31-19.51 75.38-20.74 74.88-21.53C74.59-21.96 74.23-22.10 73.66-21.82C74.16-21.24 74.45-20.74 73.87-20.09C73.51-19.58 72.65-19.44 71.93-19.66L71.86-19.73C71.50-20.66 71.28-21.60 70.99-22.54C71.64-24.26 73.73-25.78 75.53-25.63C76.82-25.49 78.05-25.13 79.13-24.34C79.49-24.12 79.78-23.83 80.21-23.76C80.57-25.06 80.57-25.06 79.63-25.70C79.42-25.85 79.27-25.99 79.06-26.06C76.90-27.43 74.59-27.65 72.14-26.93C71.57-26.71 70.92-26.42 70.49-25.99C70.42-26.21 70.42-26.50 70.42-26.71C71.93-27.86 73.66-27.94 75.46-28.08C75.02-28.66 74.66-28.87 74.16-28.58C73.51-28.15 72.86-28.37 72.14-28.66C71.57-28.87 71.06-29.30 70.34-29.45L70.34-30.17C70.42-30.10 70.49-30.10 70.56-30.10C71.21-30.02 71.71-29.88 72.14-29.38C72.14-29.30 72.29-29.23 72.36-29.30C72.65-29.45 72.79-29.38 73.01-29.09C73.15-28.87 73.51-28.94 73.80-29.02C73.94-29.02 74.09-29.16 74.02-29.38C74.02-29.38 74.02-29.52 73.94-29.52C73.01-30.67 72.50-31.97 72.22-33.34C72.14-33.55 72.00-33.62 71.78-33.70C71.42-33.77 71.06-33.77 70.78-33.77C70.78-33.98 70.85-34.20 70.85-34.42C70.92-34.42 70.99-34.34 71.06-34.34C71.71-34.27 72.00-34.49 72.22-35.06C72.43-35.50 72.58-35.93 72.65-36.36C72.86-37.22 72.65-37.80 71.93-38.23C72.07-38.66 72.22-39.02 72.43-39.46C72.58-39.02 72.79-38.66 73.01-38.30C73.37-39.31 73.37-40.32 73.22-41.26L73.58-41.90C73.73-41.54 73.80-41.11 73.87-40.75C74.23-40.68 74.38-40.90 74.59-41.04C75.53-41.76 76.54-41.98 77.69-41.90C77.83-41.90 78.12-41.98 78.19-41.76C78.34-41.54 78.19-41.33 78.05-41.18C77.98-41.04 77.83-40.97 77.76-40.90C77.18-40.25 77.18-40.03 78.05-39.67C78.41-39.53 78.77-39.53 79.06-39.53C80.57-39.53 81.86-40.03 83.02-40.82C83.66-41.26 84.31-41.76 84.82-42.55C83.88-42.84 83.09-42.98 82.22-43.27C81.86-43.42 81.50-43.34 81.14-43.20C79.92-42.62 78.91-42.84 78.19-43.70C77.40-44.57 77.26-45.79 77.90-46.80C78.12-47.16 78.19-47.38 77.98-47.66C77.98-47.74 77.90-47.81 77.90-47.95C78.05-48.10 78.19-48.31 78.41-48.46C78.41-48.38 78.48-48.31 78.48-48.17C79.92-44.57 83.09-42.98 86.40-43.27L86.18-42.26C84.96-41.69 83.88-40.90 83.45-39.46C83.38-39.17 83.02-38.81 83.38-38.52C83.66-38.23 84.02-38.38 84.38-38.38C84.89-38.45 84.82-38.88 84.89-39.24C85.10-39.82 85.46-40.39 85.90-40.82C85.75-40.32 85.68-39.74 85.61-39.24L85.46-39.02C85.32-38.66 85.25-38.45 85.39-38.30L85.32-37.58C84.60-37.73 83.81-37.73 83.02-37.66C79.06-37.22 76.32-33.41 77.04-29.52C77.26-28.44 77.47-27.14 79.13-27.00C78.98-27.72 78.70-28.22 78.48-28.80C77.18-31.54 78.48-34.42 80.78-35.78C82.22-36.72 83.74-36.94 85.18-36.65C85.10-36.22 85.10-35.71 85.03-35.28C84.96-35.42 84.82-35.50 84.74-35.64C84.38-36.07 83.66-36.22 83.23-35.93C82.73-35.57 83.02-35.14 83.16-34.78C83.38-34.42 83.59-33.98 83.81-33.70C84.10-33.34 84.46-32.98 84.82-32.76L84.82-32.11C84.46-32.26 84.10-32.54 83.81-32.83C83.45-33.12 83.16-33.48 82.94-33.91C82.66-34.34 82.37-34.42 82.01-34.06C81.36-33.55 80.86-32.98 80.57-32.18C80.06-30.31 80.64-28.73 81.65-27.07C82.51-27.79 83.38-28.37 84.38-28.51L84.74-28.51L84.74-28.01C84.02-27.94 83.30-27.72 82.66-27.14C81.86-26.42 81.43-25.63 81.14-24.62C80.71-23.26 80.86-22.03 81.50-20.88C82.44-19.30 83.95-18.36 85.54-17.71L85.68-16.92L85.46-17.06C83.59-17.93 81.79-18.94 80.86-21.02C80.71-21.46 80.42-21.82 80.42-22.32C80.35-22.61 80.28-22.82 80.06-23.04C78.62-24.34 77.04-25.13 75.10-24.98C73.37-24.91 72.00-23.76 71.57-22.18C71.35-21.38 71.50-20.66 72.07-20.30C72.50-20.02 72.94-20.02 73.37-20.38C73.80-20.81 73.44-21.02 73.15-21.31C72.79-21.82 72.86-22.18 73.37-22.46C74.16-22.97 75.10-22.61 75.46-21.67C75.82-20.88 75.82-20.09 75.67-19.08C76.97-19.22 78.12-18.86 79.13-18.29C79.63-18.00 79.99-17.86 80.50-18.29C80.93-18.65 81.43-18.58 81.86-18.14C82.51-17.64 82.87-17.06 82.66-16.20C82.44-15.55 82.58-14.98 83.02-14.47C83.30-14.04 83.74-13.68 84.31-13.82C85.03-13.97 85.68-14.33 86.04-14.98L86.26-14.26C85.75-13.75 85.03-13.32 84.38-13.25C83.59-13.18 82.73-13.75 82.22-14.62C82.01-15.12 82.08-15.62 82.01-16.13C82.01-16.49 82.15-16.92 81.94-17.28C81.79-17.57 81.58-17.86 81.22-17.86C80.86-17.86 80.64-17.57 80.50-17.21C80.35-16.70 80.78-16.34 80.78-15.98C80.71-15.55 80.21-15.41 80.35-14.83C80.86-12.89 83.02-11.66 84.89-12.24C85.03-12.24 85.18-12.38 85.25-12.02C84.46-11.16 83.30-11.66 82.30-11.52C82.37-10.80 83.09-10.51 83.38-10.01C83.59-9.65 83.88-9.72 84.10-10.01C84.60-10.51 85.03-11.02 85.68-11.23C86.11-11.38 86.47-11.66 86.83-11.95C86.90-11.59 87.05-11.23 87.12-10.94L86.18-10.73C84.31-10.01 82.94-8.06 83.38-5.98C83.45-5.83 83.45-5.62 83.66-5.47C84.10-5.26 85.10-5.83 85.10-6.26C85.10-6.91 85.03-7.56 85.32-8.14C85.68-8.86 86.83-9.58 87.55-9.50L87.62-9.50C87.62-9.43 87.62-9.36 87.70-9.29C87.70-9.22 87.77-9.14 87.77-9.00C87.55-9.07 87.41-9.14 87.12-9.07C86.04-8.93 85.03-7.42 85.32-6.34C85.39-6.05 85.54-5.90 85.82-5.98C86.11-5.98 86.40-5.98 86.47-6.34C86.47-6.62 86.47-6.91 86.54-7.13C86.69-7.85 87.05-7.92 87.91-7.27C87.41-7.27 87.05-7.56 86.83-7.06C86.69-6.62 86.76-6.26 87.12-6.05C87.48-5.76 87.84-5.83 88.20-6.12C88.42-6.34 88.56-6.62 88.63-6.98L88.85-6.55C88.70-6.26 88.42-6.05 88.49-5.62C88.78-5.47 89.06-5.33 89.50-5.26C90.22-4.03 91.01-2.88 91.87-1.87C91.80-1.80 91.73-1.66 91.66-1.44C91.58-1.44 91.58-1.37 91.58-1.37ZM114.84-43.13C114.77-43.70 114.62-44.21 114.48-44.78C114.62-44.64 114.70-44.50 114.77-44.35C115.27-44.64 115.34-45.07 115.63-45.43C116.28-46.22 117.00-46.80 117.94-46.87L117.72-46.22C117.22-46.08 116.71-45.86 116.28-45.43L116.06-45.14C115.56-44.50 115.20-43.85 114.84-43.13ZM75.46-42.26C75.10-42.34 75.38-42.55 75.31-42.70C75.31-43.49 75.17-43.63 74.45-43.42C74.74-43.92 75.10-44.50 75.53-45.00C75.53-44.64 75.60-44.35 75.67-43.99L76.10-42.77C76.18-42.55 76.25-42.34 76.03-42.26C75.89-42.19 75.60-42.19 75.46-42.26ZM73.15-34.85C73.44-34.56 73.87-34.78 74.23-34.92C74.59-34.99 74.81-35.28 75.10-35.57C75.74-36.29 75.96-37.15 76.18-38.09C76.39-39.24 76.46-40.32 77.40-41.40C75.60-41.47 74.52-40.75 74.09-39.31C73.73-38.16 73.37-37.01 73.15-35.86C73.01-35.50 72.79-35.14 73.15-34.85ZM76.90-34.27C77.40-34.42 77.54-34.78 77.76-35.06C78.70-36.43 79.99-37.37 81.58-37.94C82.66-38.30 82.73-38.38 82.66-39.96C81.72-39.24 80.35-39.53 79.78-38.23C79.63-38.52 79.78-38.88 79.27-38.95C78.62-38.95 78.77-38.30 78.41-38.02C78.26-39.02 78.26-39.02 76.97-39.38C76.82-38.66 76.54-38.02 76.68-37.30L77.04-37.30C77.40-37.44 77.83-37.51 78.12-37.08C78.26-36.72 77.90-36.43 77.76-36.22C77.33-35.64 77.04-34.99 76.90-34.27ZM75.82-30.02C76.03-30.24 76.10-30.46 76.18-30.67C76.46-31.39 76.46-32.18 76.32-32.98C76.18-33.91 76.32-34.70 76.82-35.57C77.04-35.93 77.40-36.22 77.40-36.94C76.75-36.79 76.46-36.29 76.10-36.00C75.31-35.21 74.59-34.13 73.22-34.20C72.79-34.27 72.79-33.91 72.79-33.55C72.86-32.26 73.30-31.18 74.09-30.10C74.74-29.30 75.17-29.30 75.82-30.02ZM80.86-25.99C81.07-26.14 81.29-26.42 81.22-26.78C81.14-26.93 81.00-27.07 80.93-27.29C80.64-27.79 80.35-28.30 80.21-28.87C79.42-31.25 79.56-33.34 81.94-34.85C82.01-34.85 82.01-34.85 82.08-34.92C82.37-34.99 82.37-35.21 82.30-35.50C82.15-35.78 81.94-35.64 81.72-35.57C79.99-34.85 78.55-32.69 78.55-30.82C78.55-30.10 79.70-26.78 80.21-26.21C80.35-26.06 80.57-25.70 80.86-25.99ZM82.87-29.45C82.58-29.45 82.15-29.59 81.86-29.81C81.65-29.88 81.58-30.02 81.58-30.24C81.58-30.53 81.72-30.60 81.94-30.67C82.44-30.67 82.87-30.74 82.87-31.39C82.87-31.68 83.23-31.61 83.45-31.54C83.88-31.32 84.31-30.53 84.17-30.17C83.95-29.59 83.52-29.45 82.87-29.45ZM76.46-28.22C76.54-28.15 76.68-28.08 76.90-28.37C76.75-28.73 76.61-29.23 76.32-29.95C76.03-29.45 75.53-29.38 75.53-29.02C75.53-28.51 76.10-28.44 76.46-28.22ZM106.27-26.21C106.06-26.21 105.91-26.28 105.70-26.28C105.62-26.35 105.55-26.42 105.48-26.42L106.13-26.42C106.20-26.42 106.27-26.35 106.27-26.21ZM106.56-0.79C106.63-1.44 106.63-2.09 106.56-2.74C106.78-3.17 106.92-3.67 107.06-4.10C107.21-3.82 107.42-3.89 108.07-4.03C108.36-4.18 108.65-4.18 108.86-4.54C108.36-4.97 108.22-5.62 107.86-6.12C107.71-6.12 107.57-6.05 107.50-5.98C107.64-7.06 107.78-8.21 107.78-9.22L107.78-9.29C107.86-9.43 107.86-9.58 107.78-9.72L107.78-10.37C108.00-10.37 108.14-10.58 108.36-10.94C109.15-12.02 110.09-12.96 111.53-13.32C112.25-13.46 112.90-13.32 113.62-13.10C113.69-13.10 113.83-12.96 113.83-12.89C113.83-12.74 113.69-12.60 113.54-12.60C112.90-12.67 112.75-12.17 112.68-11.74C112.54-10.66 113.76-9.72 114.77-10.01C114.98-10.08 115.13-10.15 115.20-10.37C115.56-11.52 115.99-12.60 115.99-13.82C115.99-14.47 115.85-15.05 115.06-15.41C113.90-15.91 112.97-16.78 112.39-17.93C112.10-18.50 111.82-18.58 111.17-18.50C109.44-18.29 108.79-18.29 108.00-19.94C108.00-20.02 107.93-20.02 107.93-20.09C107.93-20.23 107.86-20.30 107.78-20.38L107.78-21.46C108.29-21.53 108.72-21.74 109.15-22.03C110.38-22.75 110.74-24.19 110.23-25.63C110.16-25.92 110.02-26.21 109.87-26.42L110.59-26.42C110.74-26.14 110.88-25.78 110.95-25.34C111.31-23.69 110.66-22.32 109.15-21.46C108.86-21.31 108.36-21.24 108.43-20.74C108.43-20.02 108.79-19.37 109.37-19.08C109.94-18.79 110.66-18.79 111.31-19.08C111.60-19.22 111.67-19.51 111.60-19.87C111.46-20.38 111.53-20.81 111.60-21.31C111.74-23.26 112.61-24.91 113.69-26.42L115.20-26.42C115.20-26.06 115.49-25.85 115.78-25.78C116.21-25.70 116.21-26.06 116.28-26.28C116.28-26.35 116.35-26.42 116.35-26.42L117.00-26.42C116.86-26.21 116.78-25.92 116.71-25.56C116.42-24.62 116.57-24.26 117.43-23.83C118.51-23.40 119.52-23.04 120.67-23.18L120.67-22.68C119.66-22.61 118.66-22.82 117.65-23.11C116.78-23.40 116.14-23.98 115.70-24.70C115.34-25.20 114.98-25.78 114.48-26.21C113.26-24.91 112.68-23.47 112.39-21.89C112.03-19.94 112.54-18.29 113.90-16.92C114.91-15.84 116.28-15.26 117.72-15.05C118.73-14.62 119.66-14.40 120.67-14.47L120.67-13.61C120.60-13.54 120.60-13.46 120.60-13.39L120.60-12.96C120.82-9.79 117.94-6.62 115.20-5.90C113.40-5.47 111.24-6.62 110.88-8.21C110.59-9.50 110.66-10.80 111.31-11.95C111.46-12.17 111.74-12.38 111.60-12.67C109.51-12.17 108.00-10.37 108.36-7.20C108.50-6.12 109.01-5.33 109.80-4.68C111.10-3.67 112.61-3.17 114.19-3.17C116.71-3.10 118.80-4.18 120.67-5.76L120.67-4.10C120.17-4.18 119.66-4.03 119.16-3.89C118.51-3.60 117.79-3.24 117.14-3.02C116.93-2.95 116.71-2.81 116.50-2.74C116.14-2.74 115.78-2.74 115.42-2.66C114.98-2.66 114.55-2.59 114.19-2.52C113.33-2.52 112.46-2.81 111.60-2.88L111.82-2.02C111.60-1.94 111.38-1.94 111.24-1.87C111.17-2.45 110.88-2.95 110.30-3.24C109.51-3.67 108.65-3.82 107.86-3.38C107.64-3.24 107.42-3.10 107.42-2.81C107.42-2.16 107.35-1.58 107.35-0.94C107.06-0.86 106.78-0.79 106.56-0.79ZM106.63-25.06C106.56-25.20 106.49-25.27 106.49-25.34L107.86-25.13C107.42-25.06 106.99-25.06 106.63-25.06ZM77.47-20.66C77.04-20.81 76.61-21.10 76.61-21.67C76.61-22.10 76.97-22.03 77.26-21.89C77.62-21.74 77.76-21.82 77.83-22.18L78.05-22.75C78.19-22.90 78.41-22.90 78.55-22.75C78.77-22.54 78.84-21.31 78.62-21.02C78.34-20.66 77.98-20.52 77.47-20.66ZM110.02-20.02C109.80-20.16 109.58-20.30 109.66-20.59C109.66-20.81 109.87-20.95 110.16-20.88C110.30-20.81 110.45-20.81 110.52-21.02C110.59-21.17 110.66-21.31 110.88-21.24C111.10-21.10 111.02-20.88 111.02-20.74C110.95-20.02 110.52-19.73 110.02-20.02ZM117.72-15.12C117.22-15.34 116.71-15.62 116.21-15.84C115.92-15.98 115.70-16.13 115.56-16.34C115.34-16.70 114.84-17.06 115.13-17.35C115.56-17.78 115.78-17.14 115.99-16.85C116.57-16.20 117.43-15.98 118.22-15.77C118.44-15.70 118.80-15.70 118.73-15.41C118.66-15.12 118.37-15.12 118.15-15.12C118.08-15.12 118.01-15.19 117.94-15.12ZM108.94-16.13C108.50-16.06 108.14-16.13 107.78-16.27L107.78-16.85C107.86-16.85 107.93-16.78 108.00-16.78C108.29-16.63 108.72-16.56 108.94-16.13ZM116.28-11.16C117.58-12.53 117.72-13.97 116.50-14.83C116.71-13.46 116.50-12.31 116.28-11.16ZM114.98-6.48C117.22-7.06 119.59-9.50 119.95-11.81C120.24-13.68 120.02-13.90 118.15-14.11C117.94-13.90 118.01-13.61 118.01-13.32C117.79-11.52 116.86-10.37 115.27-9.72C113.98-9.14 112.97-9.58 112.25-10.73C112.18-10.94 112.18-11.23 111.74-11.30C111.24-10.58 111.38-9.79 111.38-9.07C111.31-7.49 113.47-6.05 114.98-6.48ZM107.78-13.54L107.78-13.68C107.86-13.61 107.86-13.61 107.86-13.54ZM89.64-2.02C89.28-2.09 88.99-2.23 88.70-2.38C88.42-2.74 88.06-3.02 87.70-3.17C87.41-3.24 87.12-3.24 86.76-3.17L85.90-3.67C86.76-3.96 87.62-4.03 88.42-3.46C89.06-3.02 89.42-2.59 89.64-2.02ZM108.50-1.15C108.50-1.22 108.50-1.22 108.43-1.30C108.43-1.80 108.65-2.23 109.08-2.52C109.44-2.74 109.73-2.52 110.02-2.30C110.16-2.23 110.30-2.02 110.16-1.80C110.09-1.66 109.94-1.66 109.73-1.73C109.58-1.87 109.37-2.02 109.15-1.73C109.08-1.58 109.01-1.44 109.01-1.30C108.86-1.22 108.65-1.22 108.50-1.15ZM120.67-1.58C120.60-1.66 120.53-1.66 120.53-1.73C120.53-1.73 120.60-1.66 120.67-1.66Z" style="pointer-events: bounding-box; cursor: move;"></path></svg></g><g transform="rotate(0 452.5 298.49521087646485)"><svg xmlns:dc="http://purl.org/dc/elements/1.1/" xmlns:cc="http://creativecommons.org/ns#" xmlns:rdf="http://www.w3.org/1999/02/22-rdf-syntax-ns#" xmlns:svg="http://www.w3.org/2000/svg" xmlns="http://www.w3.org/2000/svg" xmlns:sodipodi="http://sodipodi.sourceforge.net/DTD/sodipodi-0.dtd" xmlns:inkscape="http://www.inkscape.org/namespaces/inkscape" version="1.1" id="Layer_1" x="35" y="18.24" viewBox="160.50001525878906 266.3000183105469 679 467.3999938964844" width="835" height="560.5104217529297" style="enable-background:new 0 0 1000 1000;" xml:space="preserve" class="injected-svg" data-src="/static/media/164.svg" xmlns:xlink="http://www.w3.org/1999/xlink" fill="rgb(101, 47, 114)" opacity="1" preserveAspectRatio="none"><style type="text/css" id="style3">
	.noFillSVG{fill:none;}
	.st1{fill:#B9921D;}
	.st2{fill:#FFFFFF;}
</style><switch id="switch5" transform="translate(-13.7,0)"><g id="g7"><g id="g9"><g id="g11"><path class="noFillSVG" d="m 811,452.3 0,96.5 c -1.4,0.4 -2.7,0.8 -4,1.2 -38.2,12.3 -70.9,43.3 -73.1,80.7 -0.1,1.3 -0.1,2.6 -0.1,3.9 l -103.4,0 c -21.4,35.9 -65,60.6 -115.2,60.6 -50.2,0 -93.8,-24.7 -115.2,-60.6 l -111.8,0 c 0,-1.3 -0.1,-2.6 -0.1,-3.9 -2.1,-35.6 -31.8,-65.4 -67.7,-78.8 -1.4,-0.5 -2.7,-1 -4.1,-1.4 l 0,-99.4 c 1.4,-0.4 2.7,-0.8 4.1,-1.2 38.2,-12.3 70.9,-43.3 73.1,-80.7 0.1,-1.3 0.1,-2.5 0.1,-3.8 l 103.4,0 c 21.4,-35.9 65,-60.6 115.2,-60.6 50.2,0 93.8,24.6 115.2,60.6 l 101.8,0 c 0,1.3 0.1,2.6 0.1,3.8 2.3,38.9 37.6,70.9 77.7,82.1 1.3,0.4 2.7,0.7 4,1 z" id="path13-452" inkscape:connector-curvature="0" style="fill:none"></path><path class="st1" d="m 848.5,441.7 c -45.9,-13.4 -86.1,-51.7 -88.7,-98.3 -0.1,-1.5 -0.1,-3.1 -0.1,-4.6 l -116.3,0 c -24.4,-43 -74.2,-72.5 -131.5,-72.5 -57.3,0 -107,29.5 -131.5,72.5 l -118,0 c 0,1.5 -0.1,3.1 -0.2,4.6 -2.5,44.8 -39.8,81.9 -83.4,96.6 -1.5,0.5 -3.1,1 -4.6,1.5 l 0,119 c 1.5,0.5 3.1,1.1 4.6,1.7 40.9,16 74.9,51.7 77.2,94.4 0.1,1.5 0.2,3.1 0.2,4.6 l 127.8,0 c 24.4,43 74.2,72.5 131.5,72.5 57.3,0 107,-29.5 131.5,-72.5 l 118,0 c 0,-1.5 0.1,-3.1 0.2,-4.6 2.5,-44.8 39.8,-81.9 83.4,-96.6 1.5,-0.5 3.1,-1 4.6,-1.5 l 0,-115.5 c -1.7,-0.4 -3.2,-0.9 -4.7,-1.3 z m 0,113.5 c -46,15 -85.6,54.2 -88.1,101.4 l -116.2,0 c -0.8,1.5 -1.7,3.1 -2.6,4.6 -24.1,40.4 -71.6,67.9 -126.2,67.9 -54.6,0 -102.1,-27.5 -126.2,-67.9 -0.9,-1.5 -1.8,-3.1 -2.6,-4.6 l -125.7,0 c -2.4,-45 -38.6,-82.8 -81.9,-99.2 l 0,-112.6 c 46,-15.1 85.6,-54.2 88.1,-101.4 l 116.1,0 c 0.8,-1.5 1.7,-3.1 2.6,-4.6 24.1,-40.3 71.6,-67.9 126.1,-67.9 54.6,0 102.1,27.5 126.2,67.9 0.9,1.5 1.8,3.1 2.6,4.6 l 114.4,0 c 2.6,48.9 45.1,89.3 93.4,103 l 0,108.8 z" id="path15-453" inkscape:connector-curvature="0" style="fill:#b9921d"></path><path class="st1" d="m 755.1,343.4 -114.4,0 c -0.8,-1.5 -1.7,-3.1 -2.6,-4.6 -24.1,-40.3 -71.6,-67.9 -126.2,-67.9 -54.6,0 -102.1,27.5 -126.1,67.9 -0.9,1.5 -1.8,3.1 -2.6,4.6 l -116.2,0 c -2.5,47.2 -42.1,86.3 -88.1,101.4 l 0,112.5 c 43.4,16.4 79.6,54.2 81.9,99.2 l 125.8,0 c 0.8,1.5 1.7,3.1 2.6,4.6 24.1,40.4 71.6,67.9 126.2,67.9 54.6,0 102.1,-27.5 126.2,-67.9 0.9,-1.5 1.8,-3.1 2.6,-4.6 l 116.1,0 c 2.5,-47.1 42.1,-86.3 88.1,-101.4 l 0,-108.7 c -48.2,-13.7 -90.7,-54 -93.3,-103 z M 811,548.9 c -1.4,0.4 -2.7,0.8 -4,1.2 -38.2,12.3 -70.9,43.3 -73.1,80.7 -0.1,1.3 -0.1,2.6 -0.1,3.9 l -103.4,0 c -21.4,35.9 -65,60.6 -115.2,60.6 -50.2,0 -93.8,-24.7 -115.2,-60.6 l -111.8,0 c 0,-1.3 -0.1,-2.6 -0.1,-3.9 -2.1,-35.6 -31.8,-65.4 -67.7,-78.8 -1.4,-0.5 -2.7,-1 -4.1,-1.4 l 0,-99.4 c 1.4,-0.4 2.7,-0.8 4.1,-1.2 38.2,-12.3 70.9,-43.3 73.1,-80.7 0.1,-1.3 0.1,-2.5 0.1,-3.8 l 103.4,0 c 21.4,-35.9 65,-60.6 115.2,-60.6 50.2,0 93.8,24.6 115.2,60.6 l 101.8,0 c 0,1.3 0.1,2.6 0.1,3.8 2.3,38.9 37.6,70.9 77.7,82.1 1.3,0.4 2.7,0.7 4,1 l 0,96.5 z" id="path17-454" inkscape:connector-curvature="0" style="fill:#b9921d"></path></g><g id="g19"><path class="noFillSVG" d="m 725.2,369.2 -95.7,0 -4.5,0 c -0.7,-1.3 -1.5,-2.6 -2.3,-3.9 -21.1,-33.7 -62.7,-56.7 -110.5,-56.7 -47.8,0 -89.5,23 -110.5,56.7 -0.8,1.3 -1.6,2.5 -2.3,3.9 l -4.5,0 -97.2,0 c -2.2,39.4 -36.8,72.1 -77.2,84.7 l 0,94 c 38,13.7 69.7,45.3 71.8,82.9 l 105.7,0 4.5,0 c 0.7,1.3 1.5,2.6 2.3,3.9 21.1,33.7 62.7,56.7 110.5,56.7 47.8,0 89.5,-23 110.5,-56.7 0.8,-1.3 1.6,-2.5 2.3,-3.9 l 4.5,0 97.2,0 c 2.2,-39.4 36.8,-72.1 77.2,-84.7 l 0,-90.8 c -42.2,-11.5 -79.5,-45.2 -81.8,-86.1 z" id="path21-455" inkscape:connector-curvature="0" style="fill:none"></path><path class="st1" d="m 807,451.3 c -40.2,-11.2 -75.4,-43.2 -77.7,-82.1 -0.1,-1.3 -0.1,-2.5 -0.1,-3.8 l -101.8,0 c -21.4,-35.9 -65,-60.6 -115.2,-60.6 -50.2,0 -93.8,24.6 -115.2,60.6 l -103.4,0 c 0,1.3 -0.1,2.6 -0.1,3.8 -2.2,37.4 -34.9,68.4 -73.1,80.7 -1.4,0.5 -2.7,0.8 -4.1,1.2 l 0,99.4 c 1.4,0.5 2.7,0.9 4.1,1.4 35.8,13.4 65.6,43.2 67.7,78.8 0.1,1.3 0.1,2.6 0.1,3.9 l 111.8,0 c 21.4,35.9 65,60.6 115.2,60.6 50.2,0 93.8,-24.7 115.2,-60.6 l 103.4,0 c 0,-1.3 0.1,-2.6 0.1,-3.9 2.2,-37.4 34.9,-68.4 73.1,-80.7 1.3,-0.4 2.7,-0.8 4,-1.2 l 0,-96.5 c -1.3,-0.3 -2.6,-0.6 -4,-1 z m 0,94.8 c -40.3,12.6 -75,45.3 -77.2,84.7 l -101.7,0 c -0.7,1.3 -1.5,2.6 -2.3,3.9 -21.1,33.7 -62.7,56.7 -110.6,56.7 -47.9,0 -89.5,-23 -110.5,-56.7 -0.8,-1.3 -1.6,-2.6 -2.3,-3.9 l -110.2,0 c -2.1,-37.6 -33.8,-69.2 -71.8,-82.9 l 0,-94 c 40.3,-12.6 75,-45.3 77.2,-84.7 l 101.7,0 c 0.7,-1.3 1.5,-2.6 2.3,-3.8 21.1,-33.7 62.7,-56.7 110.5,-56.7 47.8,0 89.5,23 110.6,56.7 0.8,1.3 1.6,2.5 2.3,3.8 l 100.2,0 c 2.3,40.9 39.6,74.6 81.8,86 l 0,90.9 z" id="path23-456" inkscape:connector-curvature="0" style="fill:#b9921d"></path></g><g id="g25"><path class="noFillSVG" d="m 736.4,358.6 -100.7,0 -4.8,0 c -0.8,-1.4 -1.6,-2.8 -2.4,-4.2 -22.2,-36.4 -66,-61.3 -116.4,-61.3 -50.4,0 -94.2,24.9 -116.4,61.3 -0.8,1.4 -1.7,2.8 -2.4,4.2 l -4.8,0 -102.3,0 c -2.3,42.6 -38.8,78 -81.3,91.6 l 0,101.6 c 40,14.8 73.4,48.9 75.6,89.6 l 111.3,0 4.8,0 c 0.8,1.4 1.6,2.8 2.4,4.2 22.2,36.4 66,61.3 116.4,61.3 50.4,0 94.2,-24.9 116.4,-61.3 0.8,-1.4 1.7,-2.8 2.4,-4.2 l 4.8,0 102.3,0 c 2.3,-42.6 38.8,-77.9 81.3,-91.6 l 0,-98.2 c -44.6,-12.4 -83.8,-48.8 -86.2,-93 z" id="path27-457" inkscape:connector-curvature="0" style="fill:none"></path><path class="st2" d="m 822.5,447.3 c -42.3,-12.1 -79.4,-46.7 -81.8,-88.7 -0.1,-1.4 -0.1,-2.7 -0.1,-4.1 l -107.2,0 C 610.8,315.6 565,289 512.1,289 c -52.9,0 -98.7,26.6 -121.3,65.5 l -108.8,0 c 0,1.4 -0.1,2.8 -0.1,4.1 -2.3,40.4 -36.7,73.9 -76.9,87.2 -1.4,0.5 -2.8,0.9 -4.3,1.3 l 0,107.5 c 1.4,0.5 2.8,1 4.3,1.6 37.7,14.4 69,46.7 71.2,85.2 0.1,1.4 0.1,2.8 0.1,4.2 l 117.7,0 c 22.5,38.8 68.4,65.5 121.3,65.5 52.9,0 98.7,-26.7 121.3,-65.5 l 108.8,0 c 0,-1.4 0.1,-2.8 0.1,-4.2 2.3,-40.4 36.7,-73.9 76.9,-87.2 1.4,-0.5 2.8,-0.9 4.2,-1.3 l 0,-104.4 c -1.3,-0.4 -2.7,-0.8 -4.1,-1.2 z m 0,102.5 c -42.5,13.6 -78.9,49 -81.3,91.6 l -107.1,0 c -0.8,1.4 -1.6,2.8 -2.4,4.2 -22.2,36.4 -66,61.3 -116.4,61.3 -50.4,0 -94.1,-24.9 -116.3,-61.4 -0.9,-1.4 -1.7,-2.8 -2.5,-4.2 l -116,0 C 278.3,600.6 244.9,566.5 205,551.7 l 0,-101.5 c 42.4,-13.6 78.9,-49 81.2,-91.6 l 107.1,0 c 0.8,-1.4 1.6,-2.8 2.5,-4.1 22.2,-36.5 66,-61.3 116.3,-61.3 50.3,0 94.2,24.8 116.4,61.3 0.8,1.4 1.7,2.7 2.4,4.1 l 105.5,0 c 2.4,44.2 41.6,80.6 86.1,93 l 0,98.2 z" id="path29-458" inkscape:connector-curvature="0" style="fill:#ffffff"></path></g></g></g></switch></svg></g>
      </g>
  </svg>