<svg xmlns="http://www.w3.org/2000/svg" version="1.0" preserveAspectRatio="xMidYMid meet" viewBox="8.7 4.2 150.3 175.6">

<g transform="translate(0.000000,191.000000) scale(0.100000,-0.100000)" fill="#000000" stroke="none">
<path d="M824 1843 c-55 -38 -186 -89 -289 -114 -79 -18 -109 -20 -240 -16 -82 3 -163 9 -179 13 l-29 7 7 -159 c11 -265 34 -410 92 -595 94 -301 320 -605 604 -812 l75 -55 44 32 c87 62 218 179 289 259 273 306 392 658 392 1163 l0 152 -42 -11 c-77 -18 -293 -12 -383 12 -95 25 -190 68 -256 115 l-47 34 -38 -25z m152 -166 c106 -53 280 -80 437 -68 l87 7 0 -112 c0 -365 -76 -632 -252 -882 -91 -130 -358 -382 -390 -369 -32 12 -182 143 -269 234 -191 202 -315 436 -369 701 -17 86 -48 428 -39 436 2 2 47 0 99 -4 192 -15 364 14 503 84 l82 42 30 -22 c17 -12 53 -33 81 -47z"/>
<path d="M795 1684 c-115 -63 -321 -99 -506 -87 l-89 6 5 -69 c2 -38 7 -106 10 -152 17 -251 107 -508 248 -709 76 -108 223 -262 326 -342 l77 -59 101 83 c333 276 491 607 509 1066 l7 164 -139 1 c-202 1 -306 25 -428 99 -32 19 -59 34 -60 34 0 -1 -28 -16 -61 -35z m-275 -267 c0 -7 -15 -17 -32 -22 l-33 -10 0 -192 0 -193 31 -31 c59 -59 171 -47 214 23 18 29 20 50 20 193 0 178 -6 198 -60 210 -17 4 -30 13 -30 21 0 11 21 14 105 14 87 0 105 -3 105 -15 0 -8 -9 -15 -20 -15 -11 0 -29 -9 -40 -20 -18 -18 -20 -33 -20 -177 0 -87 -5 -175 -10 -195 -39 -140 -290 -159 -357 -28 -21 41 -23 57 -23 219 0 154 -2 175 -17 187 -10 7 -26 14 -35 14 -10 0 -18 7 -18 15 0 12 19 15 110 15 83 0 110 -3 110 -13z m810 -177 c0 -83 -14 -91 -48 -26 -26 48 -55 66 -107 66 l-35 0 0 -214 c0 -211 0 -215 22 -230 12 -9 30 -16 40 -16 10 0 18 -7 18 -15 0 -12 -20 -15 -120 -15 -100 0 -120 3 -120 15 0 9 9 15 23 15 13 0 32 6 43 14 18 13 19 30 22 230 l3 216 -35 0 c-58 0 -84 -16 -108 -65 -33 -67 -48 -59 -48 25 l0 70 225 0 225 0 0 -70z m-440 -557 c0 -33 -18 -83 -30 -83 -11 0 -30 49 -30 76 0 13 7 41 16 62 l16 37 14 -30 c7 -16 13 -44 14 -62z m-96 -55 c14 -6 33 -22 41 -35 15 -22 14 -23 -5 -23 -39 0 -80 29 -80 58 0 15 12 15 44 0z m176 2 c0 -21 -49 -60 -75 -60 -29 0 -32 11 -7 33 30 28 82 44 82 27z"/>
</g>
</svg>